<?xml version="1.0" standalone="no"?>
<!DOCTYPE svg PUBLIC "-//W3C//DTD SVG 1.1//EN" "http://www.w3.org/Graphics/SVG/1.1/DTD/svg11.dtd" >
<svg xmlns="http://www.w3.org/2000/svg">
<metadata>
This is a custom SVG webfont generated by Font Squirrel.
Copyright   : Copyright c 2010 by Kimberly Geswein All rights reserved
Designer    : Kimberly Geswein
Foundry     : Kimberly Geswein
</metadata>
<defs>
<font id="NothingYouCouldSayRegular" horiz-adv-x="627" >
<font-face units-per-em="1000" ascent="800" descent="-200" />
<missing-glyph horiz-adv-x="500" />
<glyph unicode=" "  horiz-adv-x="500" />
<glyph unicode="&#x09;" horiz-adv-x="500" />
<glyph unicode="&#xa0;" horiz-adv-x="500" />
<glyph unicode="!" horiz-adv-x="249" d="M93 20q-21 10 -17 29.5t20.5 37t38.5 28t36 3.5q22 -11 30.5 -25.5t6.5 -29t-12.5 -27t-26.5 -19.5t-36 -7.5t-40 10.5zM123 1055q0 19 12 30t27 13t27 -3.5t12 -19.5v-726q0 -15 -12 -19t-27 0.5t-27 15t-12 23.5v686z" />
<glyph unicode="&#x22;" horiz-adv-x="314" d="M29 774q-1 8 -1.5 27.5t-0.5 41.5t0.5 41t1.5 27q1 13 4 33.5t6 39t6 32t4 13.5h39v-274q-15 -5 -34 -2t-25 21zM225 774q-10 26 -17 66t-11.5 81t-7 76.5t-3.5 51.5q9 19 22.5 20t26 -8t21 -23.5t8.5 -27.5v-255q-11 -6 -23 1t-16 18z" />
<glyph unicode="#" horiz-adv-x="1176" d="M608 333q0 1 -9 1.5t-21.5 0.5t-25.5 -0.5t-22 -1.5q-61 -9 -84 -29.5t-26 -51.5t4.5 -70t7.5 -84q0 -12 -11 -17t-23.5 -4t-23.5 7t-11 14v196h-265v39q0 1 9 3.5t21 5.5l26 6l23 5q9 1 31 4.5t47 6.5l48 6l31 3q17 3 25.5 23t8.5 44t-8.5 44.5t-25.5 25.5q-19 4 -48 0 t-62 -12l-67 -16q-34 -9 -62.5 -12.5t-48.5 0t-26 20.5q14 23 45 38.5t69.5 26t80.5 17.5l76 11q34 5 57 10.5t25 14.5l39 196q0 2 7.5 2t12.5 -2q7 -3 18 -10.5t11 -9.5v-157q0 -1 5.5 -1.5t13.5 -0.5t16 0.5t14 1.5l24 4l35 5q19 3 35.5 6t23.5 5q8 9 13 35.5t8 59.5l7 68 q4 35 10 62.5t15.5 42t24.5 7.5q5 -2 12.5 -10t7.5 -10v-216q15 -2 56.5 5.5t93.5 18.5t107.5 21.5t98.5 13.5t65.5 -5t9.5 -34q-2 -3 -9 -10.5t-10 -9.5q-43 -7 -94 -11t-102 -10.5t-97.5 -19t-80 -36t-50 -62t-8.5 -96.5q3 0 11.5 -0.5t18 -0.5t18 0.5t11.5 0.5l28 4l49 7 l60 9l60 8l50 7l28 4q15 2 30 -6.5t23 -21.5t6 -27t-20 -23q-38 -19 -85.5 -23t-97 -5t-99 -5.5t-91.5 -25.5q-5 -2 -12 -10t-7 -10v-313l-20 -20l-20 20zM432 490q-1 -5 -1.5 -16t-0.5 -23t0.5 -23.5t1.5 -15.5q66 -7 111 5t70 33.5t29.5 46.5t-10.5 42.5t-50.5 22.5 t-90.5 -13q-25 -8 -39.5 -19.5t-19.5 -39.5z" />
<glyph unicode="$" horiz-adv-x="549" d="M226 216q-11 7 -38 27l-56 41l-56 42q-26 19 -36 27q-17 13 -22.5 24t2.5 35q15 8 37.5 -3.5t46.5 -30.5l50 -38q26 -19 47 -26t35.5 4.5t18.5 54.5q1 18 2 47.5t1 57.5t-1 48.5t-2 22.5l-157 157q-1 1 -1.5 11t-0.5 22.5t0.5 25t1.5 19.5q1 2 8.5 10t11.5 10 q7 4 31.5 13t51.5 20t49 22.5t25 22.5q2 8 5 28l6 41q4 22 6.5 41.5t2.5 27.5q22 7 36 0.5t22.5 -21t12.5 -35t5.5 -40t1.5 -36.5v-25q21 -9 49.5 -23.5t52 -34t35.5 -44.5t0 -55q-9 -7 -23 4l-32 24q-17 14 -38 25.5t-44 5.5q-5 -1 -12.5 -8.5t-7.5 -11.5v-157l68 -59 q35 -31 60.5 -66t35.5 -76.5t-7 -92.5q-6 -17 -23 -31.5t-40 -26.5t-48 -21.5t-46.5 -16.5t-35 -12.5t-13.5 -9.5v-156l-29 -20l-49 39v177zM334 333q5 -24 19 -33t30.5 -6t33 16t26 32t8.5 42t-19 47l-15 19q-8 10 -18 16.5t-21.5 8.5t-24.5 -4q-9 -28 -17 -67t-2 -71z M177 706q2 -3 10 -11l17 -17l18 -18q9 -9 14 -13q2 -2 9.5 -2t9.5 2q9 60 4.5 90.5t-15 41t-25 4.5t-26 -19.5t-17.5 -30t1 -27.5z" />
<glyph unicode="%" horiz-adv-x="598" d="M186 39q0 3 -0.5 11.5t-0.5 18t0.5 18t0.5 11.5q5 20 15 56l22 84l28 102l31 112l31 110l29 102l24 84l17 56l15 46l19 54l21 56l20 50l15 36q6 13 8 13h39v-79l-275 -941q-5 -18 -13 -28.5t-17 -12t-17 8t-12 32.5zM422 216q-10 33 -4.5 60.5t20 47t33.5 30.5t37.5 11 t32.5 -12.5t18 -38.5q7 -58 -7.5 -101t-38 -60t-50 -4t-41.5 67zM49 765q-25 12 -34.5 28.5t-8 33.5t13 33t28 27t37.5 15.5t43 -0.5q20 -5 30.5 -21.5t12.5 -37t-4.5 -41.5t-22 -34.5t-39.5 -16t-56 13.5z" />
<glyph unicode="&#x26;" horiz-adv-x="696" d="M530 20q-11 11 -22 27l-24 32q-12 17 -24.5 32.5t-27.5 25.5q-2 1 -9.5 1t-10.5 -1q-50 -19 -81 -34.5t-59 -25t-62.5 -10t-91.5 10.5q-52 41 -74.5 88.5t-24 96.5t15.5 99t45.5 97t64 90t71.5 78q5 156 34.5 249t70 135.5t85 42t80 -30.5t54.5 -83.5t9 -115.5 q0 -3 -2 -9l-6 -12l-6 -11.5t-5 -7.5l-38 -39l-59 -60l-60 -59l-39 -38q0 -1 5.5 -29.5t17 -67.5t27 -79.5t35 -66.5t42.5 -28t49 36q10 16 17 35l14 40q7 19 14.5 36.5t19.5 30t29 17t43 -1.5v-79l-117 -215q-17 -32 -6 -60t29.5 -53.5t32.5 -50.5t3 -52q-7 -2 -15.5 -0.5 t-17 5t-16 8t-10.5 7.5zM138 176q12 -18 31.5 -24.5t42.5 -4.5t47.5 10t46.5 18.5t39.5 21.5t27.5 19q7 24 0.5 56t-17.5 62.5t-23.5 56.5t-18.5 40q-22 55 -49.5 66.5t-54.5 -6.5t-49.5 -57t-34.5 -86t-11 -93.5t23 -78.5zM314 843q-1 -7 -1.5 -23.5t-0.5 -35.5t0.5 -35.5 t1.5 -23.5q28 -9 51 0t40.5 29.5t29 49.5t17.5 58t5.5 55.5t-6.5 43.5q-31 16 -55.5 8.5t-41.5 -27.5t-27 -47.5t-13 -51.5z" />
<glyph unicode="'" horiz-adv-x="255" d="M34 529l27 54q18 35 36.5 77.5t34 86t19.5 76.5q32 11 46.5 -0.5t16.5 -37t-7.5 -61t-25 -73.5t-36 -74.5t-41 -63t-39 -39.5t-31.5 -4v59z" />
<glyph unicode="(" horiz-adv-x="392" d="M255 39q-57 49 -97.5 101.5t-68 110.5t-44 122.5t-25.5 136.5q-2 16 6.5 56.5t24.5 93.5t38 113.5t47.5 117t52.5 103.5t53.5 73.5t50 27t41.5 -35.5q2 -2 2 -10t-2 -10q-123 -123 -181.5 -249.5t-54.5 -251.5t68 -246t187 -233q12 -36 2 -46.5t-29 -7t-40 14.5t-31 19z " />
<glyph unicode=")" horiz-adv-x="353" d="M49 20q-2 2 -5 8l-6 11q-3 6 -5.5 12t-3.5 8q99 111 153 212t58.5 202t-42 205.5t-149.5 223.5v39q22 13 42.5 6t38.5 -22t32.5 -33.5t23.5 -28.5q61 -71 90.5 -150t35.5 -158.5t-6.5 -156.5t-37 -144t-56.5 -120t-63 -86t-58 -42t-42 14z" />
<glyph unicode="*" horiz-adv-x="618" d="M304 20q-2 6 -7 31t-12.5 56t-17.5 61.5t-22 47.5q-2 -2 -13 -19l-26 -39q-15 -23 -32.5 -46.5t-34 -38.5t-30.5 -16t-21 21q-3 10 -1 28.5t6 36.5t8.5 33t5.5 20q-24 8 -43.5 23.5t-34.5 35.5q14 19 37 30t46.5 20t44 19.5t29.5 28.5l-98 118v58q21 8 39 2t33 -16 l29 -19q13 -8 23.5 -4.5t18.5 25t14 71.5q2 2 9.5 2t9.5 -2q3 -2 11 -11.5l18 -20.5l18 -19q9 -8 12 -8t11.5 5.5t17.5 12.5l18 14q9 7 12 8q5 2 19.5 2t19.5 -2q7 -24 -1 -44.5t-19 -39t-19 -36.5t0 -37q22 -3 45 2t45.5 11t44 9.5t41.5 -3.5q25 -8 28 -20.5t-7 -26.5 t-29.5 -29t-38.5 -27.5t-34 -21.5t-17 -12q12 -15 31.5 -26t37 -23t27.5 -28t2 -41q-7 -22 -21.5 -24t-32.5 7t-39.5 25t-43 29.5t-42 21t-36.5 0.5q-1 -9 3 -33l7 -53q4 -29 7 -59.5t1 -53.5t-10.5 -34.5t-27.5 -1.5q-4 2 -11.5 9.5t-7.5 10.5z" />
<glyph unicode="+" horiz-adv-x="529" d="M255 39q-1 2 -4 12t-6 23t-5.5 25t-3.5 19q-2 9 -5 31t-6 47l-6 47l-3 32q-5 19 -19 25.5t-33.5 8t-41.5 0.5t-42.5 1.5t-36.5 11.5t-23 31l20 29h166v245q18 7 30 -0.5t20 -21.5t12.5 -30t6.5 -26q1 -8 4.5 -27.5t6.5 -41.5l5 -42q3 -19 4 -26h176q3 0 9.5 -4.5 t12.5 -11t11 -13t6 -10.5q1 -6 -0.5 -14t-4.5 -16t-7 -13.5t-7 -5.5h-177q-17 0 -20.5 -22.5t0.5 -56.5t10.5 -74.5t10.5 -76.5t0.5 -62t-20.5 -32q-3 1 -9 6l-12 12q-7 6 -12.5 12t-6.5 9z" />
<glyph unicode="," horiz-adv-x="275" d="M-19 -198q47 33 78.5 78t50 96.5t25 107t3.5 110.5q8 6 18 1t19 -14t16 -17l6 -9q4 -40 -7.5 -94t-32 -107.5t-46.5 -100t-51.5 -72.5t-46.5 -24t-32 45z" />
<glyph unicode="-" horiz-adv-x="716" d="M40 432q-3 2 -10.5 9t-9.5 10q5 12 19 19.5t30 11.5t30 5.5t19 2.5q19 2 59 7l90 11l106 13l105 12l91 10l59 6q10 -5 21.5 -18t18 -28.5t3 -30t-23.5 -21.5q-27 2 -77 -3l-110 -11l-126 -14q-66 -7 -124 -9.5t-103.5 1t-66.5 17.5z" />
<glyph unicode="." horiz-adv-x="250" d="M83 39q-9 29 5.5 51.5t37.5 33t45.5 5.5t29.5 -31q7 -30 -7 -53t-36 -33t-44 -5t-31 32z" />
<glyph unicode="/" horiz-adv-x="363" d="M20 20q-1 3 -1.5 11.5t-0.5 18t0.5 17.5t1.5 11l235 706l40 79q0 2 7.5 2t11.5 -2q13 -7 19 -19t7.5 -26t-0.5 -28t-6 -25l-216 -667q0 -1 -5.5 -14.5t-14 -30t-19 -32.5t-20.5 -21q-11 -5 -23.5 2t-15.5 18z" />
<glyph unicode="0" d="M166 39q-39 33 -67.5 67t-45.5 71.5t-23 80.5t-1 95q10 97 46.5 154t87.5 81.5t111 20t116 -30.5t102.5 -70.5t71.5 -101t21.5 -120.5t-46.5 -129q-33 -49 -67 -79t-73.5 -45t-87 -17t-106.5 4q-2 0 -7 2l-12 6l-12 6q-6 3 -8 5zM186 98q18 -14 44 -20.5t53.5 -6.5 t54 6.5t44.5 20.5q61 46 92 92.5t38.5 90.5t-5 84t-38 73t-61.5 58t-74.5 38t-77.5 13t-70.5 -16.5t-53 -50t-25.5 -88.5l-7 -97q-3 -40 3 -73.5t24.5 -62.5t58.5 -61z" />
<glyph unicode="1" horiz-adv-x="157" d="M49 20q-18 27 -24 53.5t-5.5 55t4 59.5t5.5 67l3 62q1 36 3.5 75t4.5 77.5t4 69t3 49.5t2 20l39 39q14 -10 24 -26.5t15 -32.5q-1 -11 -4 -38.5t-6 -59t-6 -59.5t-4 -39v-19q-1 -20 -2.5 -45.5t-2.5 -53.5l-4 -59l-2 -58l-8 -137l-20 -20q-3 2 -10 9.5t-9 10.5z" />
<glyph unicode="2" horiz-adv-x="667" d="M107 20q-28 14 -35.5 34.5t-0.5 45.5t25.5 52.5t42.5 56.5l49 58l47 55q21 26 35 49.5t14 40.5v39q-11 2 -36 -3.5t-54.5 -13t-59.5 -14t-52 -5t-32.5 14t-0.5 41.5q1 2 8 9.5t11 9.5q34 20 61 32t55 18t61 7.5t78 1.5q44 -16 56 -44.5t3 -65.5t-33.5 -78.5t-54.5 -82.5 l-57 -79q-28 -38 -45 -67t-16.5 -46t29.5 -17h412l20 -30q-5 -9 -15 -16t-22 -11.5t-23.5 -7.5t-18.5 -4q-14 0 -43 -0.5t-65.5 -1t-77 -0.5t-77.5 0.5t-66 0.5t-43 1q-5 0 -16.5 2.5t-23.5 5.5l-24 7q-11 3 -15 5z" />
<glyph unicode="3" horiz-adv-x="608" d="M147 20q-9 3 -20 13.5t-17 22.5t-3.5 24t20.5 18q17 6 57 1.5t87.5 -9t96.5 -4t84.5 16t51 51t-3.5 101.5q-1 3 -6 9.5t-11.5 12.5t-13 11t-9.5 6q-10 1 -35 1h-53h-53q-25 0 -35 -1q-12 -1 -28.5 -8t-33 -11.5t-32 -2t-24.5 21.5q-1 2 -1 10t1 10q11 12 33.5 34t43.5 49 t34.5 56.5t6.5 56.5q-17 1 -49 -4l-67 -10q-35 -6 -68 -9t-51 3q-24 8 -19 24t28.5 33t60.5 32.5t77 22t77 2t60.5 -27.5t28.5 -67.5t-19 -116.5q121 -29 177 -76.5t62.5 -99.5t-28.5 -101.5t-97.5 -81t-143.5 -38.5t-166 25z" />
<glyph unicode="4" horiz-adv-x="608" d="M442 314q-16 2 -55 -3t-88 -10t-100.5 -8.5t-93 0.5t-66.5 17.5t-19 42.5l59 314q2 12 14 18t25.5 6t25 -6t13.5 -18q2 -13 -1.5 -40.5t-9 -60.5t-9.5 -68.5t-2.5 -63.5t11 -45.5t31.5 -15.5q19 1 50.5 4.5t63 6.5t55.5 5.5t27 2.5q7 1 17 4l20 6q9 3 15.5 6t6.5 4 l39 313q2 14 10 18.5t18 2.5t19 -8t12 -13q-1 -10 -1 -31.5t-0.5 -48.5t0 -57t0.5 -57v-49q0 -21 1 -31q6 -107 10.5 -214.5t-10.5 -216.5q-2 -17 -16 -22t-30 -1t-29 15t-13 27v275z" />
<glyph unicode="5" horiz-adv-x="539" d="M147 20q-19 4 -38 16t-35 28t-28 35t-17 38q28 12 43.5 7t28.5 -17l27 -27q14 -15 38 -22q54 -15 101 -4.5t81.5 35.5t55.5 59.5t22.5 67.5t-18 60t-65.5 37q-39 9 -75 5t-72 -10l-72 -13q-36 -6 -75 -1q-27 26 -32 70.5t6 91.5t34 89t50 62q11 2 32 5l49 7l57 9l57 8 l48 7q22 3 32 4q1 0 13.5 -1t29 -4t32.5 -7.5t24.5 -11t5 -15.5t-26.5 -20q-32 -3 -73.5 -4.5t-83.5 -6t-81 -15t-67.5 -31t-42.5 -54.5t-5 -85q110 8 186.5 -9t123.5 -49t66 -74t14 -85.5t-32.5 -83.5t-73 -66.5t-107.5 -35t-137 10.5z" />
<glyph unicode="6" horiz-adv-x="520" d="M127 20q-19 13 -35.5 38t-29.5 53.5t-21.5 56.5t-11.5 48q-10 66 -2 123t31.5 107t61 95t85.5 86q16 14 37 19.5t42 0.5v-59q-56 -50 -93.5 -89.5t-58 -81.5t-26.5 -94t1 -127q9 -6 30 8t49 36l63 44q34 24 68 36.5t66 9t58 -35.5q39 -49 42.5 -96.5t-17.5 -88t-61 -70.5 t-88 -44t-98 -9.5t-92 34.5zM186 98q-1 -2 -1 -10t1 -10q80 -14 130 -2.5t76 35t29.5 53.5t-10 52t-41.5 30t-66 -11q-48 -23 -76.5 -54.5t-41.5 -82.5z" />
<glyph unicode="7" horiz-adv-x="559" d="M196 39q-1 2 -1.5 7.5t-0.5 11.5t0.5 12t1.5 8l197 530q8 21 -13 30.5t-57 11.5t-80.5 -1.5t-84 -8.5t-68 -9.5t-31.5 -3.5q-13 3 -24.5 13.5t-17 23t-1 24.5t23.5 18q14 2 45 5l69 7l81 8l82 8l69 7q31 3 46 4q13 1 33.5 2t37.5 -4t26.5 -18t0.5 -39l-28 -68l-42 -103 l-49 -122l-48 -122l-42 -105q-18 -46 -26 -68q-3 -8 -7.5 -23.5t-11 -31.5t-14.5 -29.5t-17.5 -17.5t-22 5t-26.5 38z" />
<glyph unicode="8" horiz-adv-x="578" d="M225 20q-39 11 -57 37.5t-23.5 60t-3 70t5.5 67.5q1 13 6 27l9 30q4 15 6 30.5t-2 30.5q-7 28 -26.5 48.5t-41.5 39.5t-42 39t-27 49q-12 49 14 82t68.5 52t91 24.5t81.5 -1.5q40 -9 63.5 -24.5t44 -27.5t44.5 -16t64 9q6 2 15.5 -1t17 -9.5t10.5 -14t-4 -14.5l-216 -216 l-19 -39q49 -40 86.5 -87.5t57.5 -92.5t20 -84t-25 -62.5t-78 -27.5t-140 21zM225 98q2 -18 18 -25.5t38 -7.5t46 7.5t42.5 19.5t28.5 29t4 36q-14 41 -34.5 68.5t-42.5 39.5t-43.5 8t-36.5 -24.5t-21.5 -58t1.5 -92.5zM186 451q4 -3 10 -7t13 -7l11 -5q4 -2 5 -1l118 118 q22 23 14.5 41.5t-33 31.5t-62.5 19t-72 3.5t-62.5 -14.5t-34.5 -35t13 -58.5t80 -85.5z" />
<glyph unicode="9" horiz-adv-x="441" d="M314 20l-8 10l-9 13l-8 11l-4 5v333q-21 5 -41 1t-40 -10t-41 -10t-45 0q-43 7 -66.5 30t-30.5 55.5t0.5 69.5t26.5 72t47.5 65t63.5 46.5t74.5 17t80.5 -22.5l21 -14q13 -8 25.5 -17.5t22 -17.5t10.5 -10t1 -13v-28v-31q0 -16 -1 -26q0 -5 -3 -25.5t-7 -43.5t-7 -43 t-3 -25q-1 -15 -1 -45.5t-0.5 -69.5t-0.5 -81.5t0.5 -81t0.5 -69.5t1 -45q-6 -13 -13.5 -17.5t-15.5 -3.5t-15.5 7t-14.5 14zM98 529q-1 -4 -1.5 -15t-0.5 -23.5t0.5 -24t1.5 -15.5q43 -9 81.5 5.5t66.5 43.5t41.5 67.5t7.5 79.5q-29 5 -61 -0.5t-60.5 -20.5t-49 -39.5 t-26.5 -57.5z" />
<glyph unicode=":" horiz-adv-x="255" d="M68 20q-34 17 -44 33t-3.5 30t25.5 25t43.5 18.5t50.5 10.5t46 0q14 -2 20 -16t4 -33t-11.5 -38.5t-27 -31.5t-43.5 -13.5t-60 15.5zM88 510q-32 24 -43.5 48t4.5 69q9 29 32 37t47.5 2t46.5 -22t30 -36q12 -30 4.5 -56t-26.5 -41.5t-44.5 -17.5t-50.5 17z" />
<glyph unicode=";" horiz-adv-x="167" d="M-10 -490q23 27 43 56.5t34 61t20 66t1 71.5q0 3 -3 15l-7 25l-6 25q-3 11 -4 14q-1 2 -1 9.5t1 9.5q40 13 59 -19q29 -49 33 -102.5t-8.5 -102.5t-36 -88.5t-48.5 -60.5t-46.5 -18.5t-30.5 38.5zM29 255q0 15 12.5 31.5t29 25.5t33 7t23.5 -24q9 -26 -5 -47t-35 -30 t-39.5 -1.5t-18.5 38.5z" />
<glyph unicode="&#x3c;" horiz-adv-x="735" d="M628 20q-19 12 -58 39l-88 62l-101 73l-101 74l-86 63l-56 42q-15 11 -35.5 29.5t-39.5 37.5t-31.5 33.5t-11.5 16.5l20 39q1 1 21 25l52 64l73 88l81 99l79 96l66 79q9 11 16 17t15 8.5t19.5 0.5t28.5 -6v-59l-353 -431v-20q0 -1 14 -15l32 -33l38 -38l33 -31l20 -17 l30 -24l29 -24l19 -14l38 -25l59 -39l70 -44l69 -45l59 -38l39 -25v-78q-15 -5 -32.5 4.5t-26.5 15.5z" />
<glyph unicode="=" d="M49 20q-12 16 -17 29q-5 11 -2.5 20t19.5 9l52 3l79 3l94 4t93 4l80 4q36 1 53 2q23 1 41 -0.5t28.5 -9t13 -23.5t-4.5 -45q-14 -1 -43 -2.5t-66 -4t-77 -4.5l-78 -4l-66 -3q-29 -2 -43 -2q-8 0 -27 -0.5t-41 -0.5t-41.5 0.5t-27.5 0.5q-3 2 -10 9.5t-9 10.5zM68 353 q-5 10 14.5 22t54.5 23.5t80.5 21t93.5 15.5t92.5 6.5t77.5 -6t50 -21.5t8 -41q-1 -3 -8.5 -10.5t-11.5 -9.5q-12 -1 -36.5 -2.5t-55.5 -4t-65 -4.5l-65 -4l-56 -3q-24 -2 -36 -2q-9 0 -28.5 -3.5t-40.5 -4.5t-40 4.5t-28 23.5z" />
<glyph unicode="&#x3e;" horiz-adv-x="569" d="M88 39q-6 13 -3 27.5t10.5 28t16.5 25t15 17.5l34 37l51 56l61 65l61 65l53 55l34 36v39l-353 353l-39 59q-2 2 6 10t14 10q3 1 9 1.5t12.5 0.5t11.5 -0.5t6 -1.5l451 -432v-59l-35 -34l-52 -51l-62 -61l-60 -61l-52 -53q-23 -23 -33 -34q-6 -7 -21 -26l-30 -41 q-16 -21 -29.5 -41t-17.5 -29q-9 -6 -19 -0.5t-19 14t-15 16.5z" />
<glyph unicode="?" horiz-adv-x="696" d="M196 39q-14 29 -4 47t29 24.5t41 3t31 -17.5t-1.5 -38t-55.5 -58q-3 1 -9 6l-12 12q-7 6 -12.5 12t-6.5 9zM210 279q-3 27 -7 78l-7 106q-4 55 -7 105.5t-5 77.5q0 3 -0.5 11.5t-0.5 17.5t0.5 17.5t0.5 11.5q113 -9 195 12t135 59.5t78 88t24.5 98t-26 90.5t-73 65 t-117 21t-157.5 -41q-15 -7 -32.5 -24l-36.5 -37l-37 -42q-19 -22 -38 -37t-37.5 -21t-34.5 4q-10 50 15.5 96t74 82t112.5 59.5t131 29.5t130 -7t109 -51.5t68 -104t7 -163.5q-9 -58 -40.5 -98.5t-74.5 -68.5t-91 -45.5t-88.5 -29t-68 -18.5t-29.5 -15q-1 -10 -1 -31.5 t-0.5 -48.5t-0.5 -57t0.5 -57t0.5 -48.5t1 -31.5q0 -2 3.5 -10.5t6.5 -19.5t3 -22t-5.5 -18.5t-19.5 -9.5t-40 7q-3 2 -10.5 9.5t-9.5 10.5z" />
<glyph unicode="@" horiz-adv-x="1216" d="M245 59q-37 14 -69.5 43t-58.5 66.5t-45.5 82t-31 90t-14.5 89t3 80.5q24 143 71 249t121 186t177 140t239 111q105 39 186 40t140.5 -26t97.5 -77.5t56 -114t17 -135.5t-19.5 -142t-54 -133t-86 -109t-116 -70.5t-143.5 -16.5q-33 3 -59.5 8t-49 15.5t-43.5 28t-44 46.5 q-57 -50 -95.5 -62.5t-60.5 1t-27.5 46t3 72.5t31.5 81t58.5 72t83 45t105.5 0q18 -18 21.5 -40.5t-0.5 -47t-11.5 -49t-11.5 -47t-0.5 -41t22.5 -30.5q62 -41 124 -36.5t115.5 37.5t93.5 86t59 109q12 35 17 76t6.5 83t0 82t-3.5 73q-5 73 -40 110.5t-90 48t-125 -3.5 t-144.5 -43t-148 -70t-136.5 -86t-110.5 -90t-68.5 -82q-31 -55 -48.5 -108.5t-25.5 -108.5t-8.5 -113t3.5 -121q4 -62 30.5 -108t68 -78.5t93.5 -53t107 -30.5t109.5 -11t101.5 6q70 11 140.5 39.5t136.5 68.5t125.5 88t107.5 99h39q13 -33 -1 -66t-47 -65t-81 -62 t-103 -56t-112 -48t-108 -38.5t-92 -26t-64 -11.5q-48 -4 -84 -2.5t-70.5 9t-71.5 20.5zM402 549q-1 -2 -1 -10t1 -10q10 -7 21.5 -1.5t22.5 18.5t20.5 30t17 32.5t12 26.5t4.5 12q-14 10 -29.5 0t-30 -28t-25 -39t-13.5 -31z" />
<glyph unicode="A" horiz-adv-x="725" d="M504 373h-279l-39 -20q-1 0 -8 -22l-17 -54l-19 -65l-15 -55q-1 -4 -4 -18.5t-6 -31t-6 -30.5t-4 -18q-7 -27 -17.5 -38.5t-40.5 -0.5q-11 3 -14 34.5t0.5 78t12.5 100.5t21.5 103t27.5 86t30 49l157 549q3 12 14.5 18t24 6t24 -6t15.5 -18l31 -123q19 -72 43.5 -148.5 t55 -150t66.5 -127.5q37 -14 44.5 -24.5t3 -23t-11 -29t3.5 -41.5l98 -255l2 -14q3 -15 2.5 -32.5t-5.5 -33t-19 -18.5l-39 39zM225 471q2 -5 9.5 -12.5t10.5 -7.5h176q4 0 11.5 7.5t8.5 12.5q1 3 1 12v17v18q0 8 -1 11q-3 10 -11 30l-18 45l-20 53l-20 53l-18 45l-11 29 q-2 5 -9.5 20t-10.5 20q-16 -33 -37 -81t-38 -98t-25 -96.5t2 -77.5z" />
<glyph unicode="B" horiz-adv-x="745" d="M205 20l-24 10q-18 7 -39 17t-42.5 23.5t-36 29.5t-20 35t5.5 41q1 3 6.5 7t11.5 7t12 5t9 1q1 20 2.5 61.5t3 93.5t4 109.5t4 109.5t3 93.5t2.5 61.5q1 18 -13 36l-26 36q-14 18 -22 35t3 31q23 29 61.5 50t80.5 34.5t83 21.5t69 11q63 8 93 -6t39 -41.5t2.5 -64 t-16.5 -74t-18 -71.5t-2 -56q110 -6 174.5 -44t91.5 -95t21 -126.5t-37.5 -137t-83.5 -126.5t-117 -96.5t-138 -46.5t-147 25zM166 118q4 -4 14.5 -10.5t23.5 -12.5l24 -11q12 -5 17 -6q74 -12 138 7.5t114.5 58.5t86 92t52.5 107.5t13.5 105t-31 84.5t-81 46t-135.5 -10 l-49 -14q-32 -8 -65 -20t-61.5 -28t-40.5 -36q-1 -12 -2 -39l-4 -59l-4 -69l-4 -69l-3 -60q-2 -26 -3 -38v-19zM205 588q38 30 67.5 57t52.5 57t41.5 64t35.5 77q10 28 -2 42.5t-36 18.5t-54.5 -1.5t-58 -16.5t-46.5 -27.5t-19 -34.5v-216z" />
<glyph unicode="C" horiz-adv-x="686" d="M166 20q-49 42 -78.5 84.5t-44 89.5t-17 100.5t2.5 117.5q3 39 14.5 96.5t32 119.5t51 121.5t71 101t91.5 58t113 -6.5q18 -7 34.5 -28.5t28.5 -48.5t18 -56t2 -51t-19 -32t-45 0q2 67 -8 102.5t-28 47.5t-42 4t-50 -29.5t-52.5 -52.5t-49 -64.5t-40 -66.5t-24.5 -58 q-12 -39 -22 -94.5t-12.5 -114t5.5 -114.5t31.5 -97.5t65.5 -62t109 -8.5q50 9 86.5 26t69 38.5t65 45.5t73.5 47q14 8 27.5 5t22.5 -13t12 -24t-4 -27q-13 -25 -47.5 -52.5t-80.5 -52t-99 -44t-103.5 -28t-92.5 -5t-67 25.5z" />
<glyph unicode="D" horiz-adv-x="775" d="M127 20q-3 1 -8 6.5t-9.5 11.5t-8 12t-3.5 9v666q-5 2 -15.5 9.5t-21.5 17t-20 18.5t-12 14q-12 24 8.5 47t62.5 39.5t101 23.5t124 -1t131 -34t122.5 -76t98 -126.5t58.5 -185.5q12 -77 -9 -149.5t-64.5 -133.5t-106 -107.5t-134 -71t-147.5 -23.5t-147 34zM186 118 q7 -27 41 -37.5t81 -5.5t101.5 26t103 57.5t85 89.5t48.5 121.5t-6.5 152.5t-81.5 184q-19 31 -53.5 58.5t-75.5 46t-83.5 24t-77 -7t-57.5 -46.5t-25 -95q0 -21 -0.5 -65.5t-0.5 -100.5t-0.5 -118t0 -118t0.5 -100.5t1 -65.5z" />
<glyph unicode="E" horiz-adv-x="676" d="M49 39v686q-9 21 -15 37t-5.5 29.5t9.5 25.5t30 26q12 2 38 5l60 8l69 8l69 8q33 4 59 6.5t39 3.5q10 1 40.5 4.5t65 2t66 -11t43.5 -34.5q6 -13 -2 -23.5t-17 -15.5q-10 1 -35 1h-54h-53q-25 0 -35 -1q-15 -1 -48 -3.5t-71.5 -7.5t-75.5 -12t-60 -16q-5 -2 -12 -9.5 t-7 -10.5v-235h353v-39l-353 -59l-20 -20q-2 -2 -2.5 -29t-0.5 -64.5t0.5 -77t2.5 -64.5q2 -35 33.5 -53t78.5 -24t103.5 -3.5t110 7.5t98 10t66.5 4q21 -11 21 -29.5t-21 -29.5q-12 -2 -37 -5l-55 -7q-30 -4 -64.5 -8t-65.5 -8l-55 -7q-24 -3 -36 -4q-4 0 -15 -0.5 t-23.5 -0.5t-24 0.5t-16.5 0.5q-17 1 -43 4l-52 7q-25 3 -43 5.5t-19 3.5z" />
<glyph unicode="F" horiz-adv-x="676" d="M39 78q-5 216 0.5 432.5t19.5 430.5q2 2 9.5 2t9.5 -2q5 -2 17 -9l24 -14l23 -15.5t15 -10.5h470l39 -49l-19 -29h-510v-363q3 0 11.5 -0.5t18 -0.5t18 0.5t11.5 0.5q42 7 93.5 19.5t105.5 23.5t108.5 17t104.5 -1q11 -2 16 -10.5t5 -18.5t-5.5 -19t-15.5 -11l-481 -109 v-322q-14 -9 -32.5 -9.5t-33.5 7.5t-22.5 23t0.5 37z" />
<glyph unicode="G" horiz-adv-x="765" d="M166 20q-32 9 -56.5 32.5t-41.5 54.5t-27 64.5t-12 63.5q-3 44 -2 112.5t11 144.5t31 150.5t57 129.5t89 82t128 9q4 -1 19.5 -6.5t36 -15t42 -22.5t38 -28t23.5 -31.5t-2 -34.5q-22 -9 -42 -3t-40 18.5t-40 27t-41 24t-44 9.5t-48 -17q-14 -9 -28 -31t-25 -45t-18 -41 t-8 -20q-47 -142 -61.5 -243.5t-4.5 -169.5t40 -104.5t72.5 -49.5t93 -4.5t100.5 31.5t95.5 57t78.5 73t49.5 79.5t7.5 75.5q-5 1 -19.5 1t-19.5 -1l-20 -4l-36 -7l-43 -9l-42 -8l-35 -7l-20 -4q-18 -3 -33.5 5.5t-23 21.5t-4.5 27.5t21 23.5q3 1 11 4.5t17 6.5l18 6 q9 2 13 3q33 7 77 23l84 30q41 14 73 22.5t41 2.5q25 -17 34 -36t7.5 -40.5t-9 -46.5t-13.5 -53q-20 -91 -74.5 -164t-130 -119.5t-165 -61t-179.5 11.5z" />
<glyph unicode="H" horiz-adv-x="706" d="M59 20q-14 20 -19 36.5t-6 33.5t1 37t4 49q1 24 4 75l7 115l8 134l8 134l7 114q3 51 5 76q1 6 5.5 29t13.5 43.5t24 27t36 -21.5q1 -21 -3 -58.5t-9.5 -81.5t-9.5 -89.5t-2.5 -82t11.5 -59.5t32 -21q42 3 89.5 6t95.5 7t96 10t92 16q19 18 24.5 59.5t5.5 91.5v99 q0 50 9 83q15 5 34 2t25 -21l3 -89l3 -134l4 -159.5t4 -159t3 -135t2 -88.5q0 -20 -13.5 -30t-30 -12t-30.5 4t-14 18v353q0 4 -11 11.5t-18 8.5q-5 1 -18 1h-29h-30q-15 0 -21 -1q-21 -2 -51 -5.5t-62.5 -8t-64.5 -8.5t-57.5 -7.5t-41.5 -6t-17 -3.5l-20 -20 q-1 -1 -3.5 -28t-5.5 -64l-6 -78q-4 -40 -5 -65q0 -8 -0.5 -27.5t-0.5 -41.5t0.5 -41.5t0.5 -26.5q-11 -24 -28.5 -21.5t-29.5 21.5z" />
<glyph unicode="I" horiz-adv-x="157" d="M59 20q-2 4 -5.5 17.5t-6.5 29t-5.5 30t-2.5 21.5v745q0 24 12 33t27 7t27 -13t12 -27v-863q-6 -2 -15 -1t-18 4.5t-16 8t-9 8.5z" />
<glyph unicode="J" horiz-adv-x="814" d="M255 20q-13 5 -37.5 16.5t-51 28t-52 37t-41 42.5t-16 45.5t21.5 45.5l10 -9l25 -24l34 -31l36 -32l32 -27q14 -11 20 -14q49 -25 89 -26.5t66.5 17t37.5 55.5t3 91q-3 16 -8.5 50t-13.5 76l-16 90l-17 89q-7 43 -14 77t-10 50q-28 3 -43.5 1.5t-29.5 -5t-32 -8.5t-52 -8 q-14 -1 -37 -1.5t-44.5 -0.5t-38 0.5t-17.5 1.5l-51 51l659 165h98q2 0 5.5 -4.5t6.5 -11t5.5 -13t2.5 -10.5q0 -9 -21.5 -19t-55 -20.5t-73.5 -21.5l-77 -21q-37 -10 -66.5 -19.5t-40.5 -16.5q-8 -77 0 -152t18.5 -150.5t19 -151.5t2.5 -154q-12 -40 -38 -62t-59 -29.5 t-69.5 -3t-69.5 16.5z" />
<glyph unicode="K" horiz-adv-x="725" d="M59 39q-2 1 -4 27.5t-4 67.5t-4 92l-4 103q-2 52 -3 99.5t-1 81.5q0 15 1 45.5t3 69t4 81.5t4 81.5t4 69t4 45.5q0 5 7 12.5t12 7.5q6 0 14 -2.5t16 -5.5t13.5 -6.5t5.5 -5.5v-294q15 -5 47.5 10.5t74.5 43.5t90 64l94 68q47 34 88 60.5t69 37.5t39 1t-2 -50 q-11 -15 -39 -37t-66 -49l-81 -55l-85 -59l-80 -57q-37 -27 -63 -50t-37 -40t0 -25l432 -314q11 -8 27 -23t29.5 -33.5t21 -39.5t0.5 -41q-1 -3 -8.5 -10.5t-11.5 -9.5q-11 12 -42 40l-64 60l-65 58q-31 28 -44 38q-5 4 -34 24l-67 44l-75 50l-60 39q-23 15 -41.5 20 t-46.5 0v-353l-29 -20z" />
<glyph unicode="L" horiz-adv-x="765" d="M157 20q-66 21 -95 74t-23 122q2 16 5 50l7 76q4 42 8 89l8 90l7 76q3 34 4 50q1 11 -1.5 38t0.5 52.5t16 41t44 5.5q4 -1 11.5 -8t8.5 -11q0 -10 0.5 -35t0.5 -53.5t-0.5 -53.5t-0.5 -35q0 -8 -3 -39.5t-7 -68t-7 -68t-3 -39.5q-1 -26 -1.5 -65.5t-0.5 -77t0.5 -65 t1.5 -28.5l39 -39h569q1 -5 3 -17t0.5 -24.5t-6.5 -23t-17 -13.5q-70 3 -142 -5t-144 -14.5t-143.5 -5t-138.5 24.5z" />
<glyph unicode="M" horiz-adv-x="951" d="M49 20l-3 83l-3 128l-4 151l-4 150l-3 129l-3 84v19q0 7 3.5 12t11.5 11l24 17q13 8 23.5 -2.5t15.5 -17.5q1 -2 7 -11l12 -19l13 -19q6 -8 8 -10l31 -33l48 -48l57 -57l57 -57l48 -48l33 -31q31 -21 54 -19.5t44 39.5l235 411q2 3 9.5 5t17 2t18.5 -2t14 -5q3 -3 7 -11 t7.5 -17t5 -17.5t0.5 -12.5q1 -21 3.5 -66l5.5 -101l8 -118q4 -62 8 -118l8 -101l6 -65q1 -11 6 -39l11 -60l13 -59q6 -28 9 -38q-4 -31 -13 -39t-19.5 -1t-22 24t-21 36t-15.5 35.5t-7 22.5q-2 19 -7 59l-11 91l-12 106l-12 105l-11 90l-6 59h-19l-196 -314h-79l-294 255 h-49v-568q0 -16 -10 -20t-22 -1.5t-23 9t-13 12.5z" />
<glyph unicode="N" horiz-adv-x="745" d="M39 20q0 6 -0.5 23t-0.5 35.5t0.5 35.5t0.5 23q1 24 2.5 64.5t3.5 87.5l4 96q2 49 4 91l3 72q2 30 3 40q6 90 18.5 127.5t29.5 38.5t38 -24.5t43 -62.5l44 -76q22 -38 42 -62l50 -56l63 -67l68 -69l62 -61l48 -43.5t23 -16.5h20v529q0 4 7 11.5t12 8.5q3 1 11 1h18h18 q9 0 12 -1q1 -15 2.5 -45.5t4 -69.5t4.5 -82l4 -81q2 -38 3 -69t2 -45q1 -33 3.5 -73t1.5 -82t-6 -83t-19 -76q-2 -3 -9.5 -10.5t-10.5 -9.5l-509 510q-3 -5 -5 -35l-5 -77l-7 -102q-3 -56 -8.5 -111t-13.5 -103.5t-19 -79.5t-26 -39t-34 18z" />
<glyph unicode="O" horiz-adv-x="686" d="M147 59q-66 43 -95 100.5t-29.5 120t24 124.5t66 115t96 92.5t114.5 55.5q68 -28 108.5 -50.5t69.5 -51.5t54 -69l62 -104q44 -75 42 -139.5t-35 -114t-90 -82.5t-124 -45t-136.5 -1t-126.5 49zM186 118q36 -28 85 -35.5t99 1t95.5 32t74.5 59t36.5 81t-18.5 97.5 q-48 97 -99.5 145.5t-101.5 61t-94.5 -6t-79 -56t-55.5 -89t-23.5 -104.5t16.5 -102.5t65 -83.5z" />
<glyph unicode="P" horiz-adv-x="716" d="M107 39q-3 7 -8 21.5t-9 29.5l-8 29q-4 13 -4 18v588q-3 4 -10.5 15t-14.5 23l-15 24q-7 12 -9 17q-10 21 16 47t74.5 50.5t113.5 43t132.5 24t130.5 -6.5t108.5 -48.5t67 -101t4.5 -165.5q-9 -51 -37.5 -92t-69.5 -73t-91.5 -56.5t-102 -42.5t-101 -30t-88.5 -20 l-20 -19v-294l-19 -20q-3 1 -9 6l-12 12q-7 6 -12.5 12t-6.5 9zM166 745q-1 -11 -1 -34t-0.5 -52t0 -61t0.5 -61v-52q0 -23 1 -34q36 -6 80.5 -3t90.5 14t91 30.5t81 47.5t60 64.5t29 81.5q6 58 -8.5 98.5t-43 66t-67.5 37.5t-80.5 11.5t-82.5 -12t-73.5 -31.5t-53.5 -48.5 t-23 -62.5z" />
<glyph unicode="Q" horiz-adv-x="922" d="M656 137q-22 14 -54 5.5t-70 -25.5l-84 -37q-44 -20 -91 -29t-95.5 -0.5t-95.5 47.5q-55 46 -87 110t-41.5 135.5t3 144.5t46 136t88 111t129.5 69q36 11 77.5 -0.5t82 -37t78 -62.5t66.5 -77.5t47.5 -81t20.5 -74.5q1 -9 1 -28v-41v-49v-49q0 -23 -0.5 -41.5t-0.5 -27.5 q7 -8 27 -25l46 -38l53 -46q28 -23 50 -44.5t33.5 -38t6.5 -23.5h-59l-35 24l-53 35l-54 35q-25 17 -35 23zM166 176q3 -3 11 -9l17 -13q9 -6 18 -11t13 -6q11 -2 39 -2.5t59 -0.5t59 0.5t39 2.5q2 0 12 5l23 11l25 12l19 11q26 16 21 36t-27.5 41.5t-55.5 43.5l-61 44 q-29 21 -46 39t-8 32h59l176 -98q12 -7 23.5 2t16.5 17q9 97 -8 167t-57.5 116t-103.5 68t-145 22q-46 0 -78 -31.5t-51.5 -81.5t-28 -111t-6.5 -120t14 -109t32 -77z" />
<glyph unicode="R" horiz-adv-x="843" d="M78 20q-7 114 -15.5 229t-15 230.5t-9.5 231t1 230.5q18 4 32 -0.5t27.5 -11t27.5 -10t31 2.5q4 1 21 10l37 19l37 19l22 10q58 22 118 21t118 -21q59 -20 87 -56t30.5 -79.5t-18.5 -90t-60 -87.5q-8 -9 -25 -26l-38 -38l-45 -45l-45 -45l-38 -37l-25 -25v-20l64 -37 q34 -20 67.5 -42.5t65 -47t58.5 -49.5l38 -37l47 -45l47 -47l42 -43l30 -31q12 -12 12 -13v-39q-24 -6 -54.5 9.5t-66.5 45t-77 68.5l-84 79l-89 79q-45 38 -91.5 65.5t-93 41t-91.5 4.5v-372q0 -13 -11 -18.5t-25 -5t-27 6.5t-16 17zM137 588q0 -5 2.5 -19l5.5 -30l7 -29 q3 -14 5 -20q21 -7 45.5 0t48.5 20.5t45 29.5l37 29q93 72 141 130t61 100.5t-3 70.5t-50 41.5t-81 12t-95.5 -17.5t-93.5 -46.5t-75 -75.5q-1 -11 -1.5 -38.5t-0.5 -59t0.5 -59.5t1.5 -39z" />
<glyph unicode="S" horiz-adv-x="735" d="M196 39q-50 17 -83.5 44.5t-52.5 57.5t-25 58t-2.5 46.5t16 23t30.5 -13.5q1 -2 4 -10.5t6 -18.5l5 -19q3 -9 4 -11q32 -45 88.5 -77.5t120.5 -48t128.5 -12.5t112.5 29t72 76.5t8 130.5q0 1 -5.5 14.5t-14 30t-19 32.5t-20.5 21l-353 177q-6 2 -15.5 11.5t-19.5 21.5 t-17 24.5t-7 20.5q0 49 24 81t62 49t86.5 21t96.5 -2.5t92 -21t74 -34.5t41.5 -44t-5.5 -49q-8 -5 -34 7l-61 32q-36 18 -78 35t-82.5 21t-76.5 -12t-60 -63q-7 -14 -2.5 -33.5t21.5 -25.5l35 -16l52 -23l61 -28l61 -29l52 -25l33 -16q24 -13 47.5 -31.5t42.5 -41t32 -49 t16 -55.5q8 -81 -8 -137t-50 -91t-83 -51.5t-106 -18t-119.5 10t-124.5 32.5z" />
<glyph unicode="T" horiz-adv-x="931" d="M334 39q-27 126 -38 254t-1 256l-20 20q-11 0 -39 3l-60 5q-31 3 -58.5 6t-38.5 5q-9 1 -20 6t-18 12.5t-8.5 17.5t7.5 23q85 4 191.5 8.5t219.5 8t224.5 4.5t207.5 -1q12 -17 17 -30q5 -11 2.5 -20t-19.5 -9q-14 0 -43 -1.5t-66 -3t-77.5 -4t-77.5 -4.5t-66 -4l-43 -3 q-6 0 -23 -2.5t-35 -5.5l-36 -6q-17 -3 -23 -5q-1 -15 -1 -45.5t-0.5 -69.5t-0.5 -81.5t0.5 -81.5t0.5 -69.5t1 -45.5q0 -4 3 -21l6 -37l7 -37q3 -18 3 -22q3 -20 -6.5 -36t-23 -21.5t-27.5 2.5t-21 35z" />
<glyph unicode="U" horiz-adv-x="657" d="M275 20q-43 21 -79.5 64.5t-65.5 99.5t-50.5 119.5t-35 125.5t-18.5 117.5t-1 95t17.5 58t36.5 6.5q3 -2 10 -9.5t9 -10.5q-2 -69 4 -130t19 -119.5t32 -117t43 -123.5q6 -15 18.5 -34t28.5 -37t34.5 -31t36.5 -16q62 -10 102 12t64 66.5t34 106t12 130t-2 138.5 t-9 131.5t-7.5 109t2.5 71.5q3 17 15 19t25.5 -4t25 -16t13.5 -18q2 -7 5 -24t6 -36l6 -36q2 -16 2 -22q0 -15 0.5 -47.5t0.5 -73.5v-85v-86q0 -40 -0.5 -72.5t-0.5 -47.5q-9 -39 -23 -81.5t-34 -81.5t-46.5 -71t-60.5 -49t-76 -17t-93 26z" />
<glyph unicode="V" horiz-adv-x="745" d="M412 20q-86 73 -151 164t-123 189q-2 3 -12 24l-22 50l-25 57q-13 28 -20 45q-4 10 -11.5 33.5t-14 51.5t-9 54.5t3 43t22 17t48.5 -23.5q18 -14 26 -38.5t12.5 -53t8 -56.5t12.5 -48l49 -104q26 -54 56.5 -106t67.5 -99t82 -83q11 6 21 20.5t17.5 30.5l13.5 29l7 18 l49 138q23 67 42.5 134t36 135t29.5 142q10 6 27 2t31 -13t21.5 -22t-1.5 -26l-42 -179q-22 -91 -49.5 -181.5t-62.5 -178t-81 -166.5q-14 -23 -26 -20.5t-33 20.5z" />
<glyph unicode="W" horiz-adv-x="1000" d="M196 20q-78 137 -123 293t-53 314q2 8 12 19.5t22 17.5t24 4t20 -21q1 -13 5 -39l9 -59l12 -69l13 -69l12 -59q5 -26 8 -38q4 -15 13 -39l18 -45q9 -22 17 -38t11 -16h20q2 0 11 22l22 54l25 65q13 34 20 56q3 8 8 26l11 42l12 48l12 49q6 24 10 42l6 28q10 3 21.5 0.5 t22.5 -8.5t20 -14.5t14 -16.5q30 -62 57 -123.5t58 -119.5t69.5 -110.5t90.5 -97.5q14 8 24 26t15 32q3 13 10 38t14.5 56.5t16.5 65.5l17 64l13 55q5 24 8 35q1 6 1.5 27.5t1.5 50.5t3 63.5t6 67t10.5 60.5t17 44.5t24.5 18t34 -17.5q1 -2 4.5 -7.5t6.5 -11.5t5.5 -11.5 t2.5 -8.5q-1 -12 -3.5 -38.5t-6.5 -59.5l-7 -69q-4 -36 -9 -69l-8 -60q-3 -26 -5 -38q-3 -15 -14 -56l-22 -88l-24 -90q-12 -42 -18 -60q-5 -13 -13.5 -33t-18 -38.5t-17.5 -32t-10 -13.5h-59q-4 0 -24 18l-45 42l-50 51q-25 27 -38 45q-4 4 -13 19l-21 36l-25 43l-26 43 l-21 36l-12 20q-5 8 -15 17t-24 2l-13 -39l-20 -59l-25 -69l-24 -69l-21 -59q-10 -26 -14 -38q-16 -42 -38 -54.5t-61 15.5z" />
<glyph unicode="X" horiz-adv-x="696" d="M29 20q-1 3 -1.5 8.5t-0.5 12t0.5 11.5t1.5 7l228 373l-189 274v39h39q1 0 13 -11l28 -27l31 -33l26 -27q5 -5 17 -19l24 -30l23 -29q11 -14 15 -20q13 -6 28.5 7.5t32.5 39.5t35 59l34 65q16 33 32 61t30 42.5t25 11.5t18 -31q1 -5 1.5 -13.5t0.5 -18t-0.5 -17.5 t-1.5 -10l-156 -313l215 -236q32 0 49.5 -12.5t25 -30.5t6 -38t-8 -35.5t-15.5 -22.5t-18 2l-255 255q-14 14 -24 17.5t-19 0t-17 -13.5t-18 -24l-22 -34l-36 -51l-40 -61l-42 -61l-34 -53l-22 -34q-15 -5 -34 -2t-25 22z" />
<glyph unicode="Y" horiz-adv-x="725" d="M373 20q-14 35 -11.5 72t13.5 74.5t27.5 76t30 77t20 76.5t-1.5 75l-40 40l-59 62l-69 73l-69 73l-59 63l-37 42q-2 2 -12 16l-23 33l-24 38l-19 30l-16 27q-9 17 -4 32q22 5 52 -13.5t63.5 -52t69.5 -77.5l72 -87l69 -85q34 -40 62 -67.5t49.5 -37t33.5 7.5 q20 30 30.5 73.5t17.5 93.5t13 102t16.5 98.5t29 84t49.5 58.5q28 -14 37 -32.5t3 -45.5l-236 -981q-2 -8 -11.5 -19t-21.5 -17.5t-24.5 -4t-20.5 21.5z" />
<glyph unicode="Z" horiz-adv-x="961" d="M49 20q-3 3 -7 9t-7.5 12.5t-5 11.5t-0.5 6l353 470l14 21q12 19 24 43t19.5 49.5t1.5 43.5q-20 4 -52 -4.5t-69 -21.5l-77 -25q-39 -12 -73.5 -15.5t-61.5 6t-40 41.5l39 39q1 1 20 6l51 12q31 8 69 16l78 17l74 15l61 12q55 10 81.5 -1.5t31 -38.5t-9.5 -67.5 t-39.5 -88.5t-59.5 -101l-72 -104l-70 -99l-62 -87q-27 -38 -42.5 -64t-12.5 -35q23 -3 66 1.5t97 13t115.5 20t122.5 21.5t118 17.5t101.5 10t73 -3t32.5 -21.5q1 -6 2 -16t1 -19.5t-1 -16.5t-2 -7l-804 -98q-20 -2 -41 0.5t-37 19.5z" />
<glyph unicode="[" horiz-adv-x="775" d="M49 39q-15 22 -21.5 68.5t-7.5 108t3 132.5t11 142.5t16.5 137.5t19.5 117.5t19.5 83.5t17.5 34l50 10l76 14l90 17l89 16l77 13q34 5 50 8q12 2 28 0t31.5 -7t27 -12t14 -14t-6.5 -14t-35 -12l-412 -78q-13 -2 -24 -34.5t-20.5 -83t-17 -114.5t-12 -130.5t-6.5 -130 t-0.5 -113.5t7 -80t14.5 -30h569q12 0 21.5 -7t15.5 -17.5t7 -22.5t-5 -21h-667q-2 0 -9 7t-10 12z" />
<glyph unicode="\" horiz-adv-x="471" d="M20 804q-6 13 0.5 28.5t17.5 26t23.5 13.5t17.5 -9l372 -824v-39q-29 -12 -57 -1t-41 40z" />
<glyph unicode="]" horiz-adv-x="618" d="M79 20q-6 12 2 23t17 16q12 3 38 9l60 13l69 16l69 17l59 14l39 9q16 7 29 14q11 6 20.5 13t9.5 12v608q0 1 -7.5 8.5t-12.5 11.5l-11 8l-12 9l-11 8l-5 4h-373q-12 0 -21.5 7t-15.5 17.5t-7 22.5t5 22q13 1 46 1h72h70q34 0 47 -1q18 -1 55 -1.5t80.5 -4t86.5 -11 t72 -22.5q5 -2 12.5 -10t7.5 -10v-765q0 -2 -31.5 -9.5t-79.5 -16.5l-106 -20q-57 -11 -109.5 -19t-92.5 -12t-52 -1q-2 1 -9.5 8.5t-9.5 11.5z" />
<glyph unicode="^" horiz-adv-x="431" d="M334 612q-4 6 -16 29l-24 49l-24 50l-14 29q-2 3 -9.5 10t-10.5 9q-27 -18 -44 -43t-33 -52t-34 -53.5t-46 -47.5l-39 39l157 295q10 19 25 20t29.5 -8.5t26.5 -24.5t17 -27l118 -274q3 -7 3 -16t-2 -17.5t-7 -15.5t-14 -10q-4 3 -13 11t-18 17t-17 18t-11 13z" />
<glyph unicode="_" horiz-adv-x="951" d="M49 20q-1 3 -1.5 11.5t-0.5 17.5t0.5 17.5t1.5 11.5q9 2 31 5l47 7l47 5.5t31 2.5q22 0 67 0.5t101 0.5h118h118q56 0 100 -0.5t65 -0.5q14 0 41 -1.5t52 -8.5t39.5 -22.5t4.5 -45.5q-1 -3 -38.5 -5.5t-98 -4t-137.5 -3t-157 -2t-157 0t-137.5 2.5t-98 5t-38.5 7z" />
<glyph unicode="`" horiz-adv-x="649" d="M475 1105l30 -50q-7 -14 -30 -12.5t-54.5 13.5t-67.5 32t-69 44t-59 50t-37.5 48.5t-4.5 39.5t41 25q20 -27 55 -56t73 -55t72 -47z" />
<glyph unicode="a" d="M480 39q-14 9 -27 35l-27 52q-14 26 -29.5 43t-34.5 7l-41 -60q-20 -30 -44.5 -50.5t-56 -29t-73.5 2.5q-41 10 -66.5 40t-38 71.5t-12.5 91t11.5 98.5t33.5 93.5t53 77.5t70.5 49.5t85.5 8.5q43 -7 71 -34t46.5 -65.5t29 -84.5t19.5 -92l17 -88q8 -42 22 -71.5 t35.5 -43.5t56.5 -4q40 38 64 51t35 8.5t9.5 -21.5t-13 -37.5t-31.5 -40t-45.5 -30t-56 -7t-63.5 29.5zM107 137q17 -42 42 -48t53 11t55 50.5t47.5 71.5t31.5 74t7 57q-2 8 -8 28l-11 41q-6 22 -12 41t-8 27q-32 22 -58 21.5t-46.5 -16.5t-36 -45t-27 -64.5t-18 -73.5 t-10 -72t-3.5 -61.5t2 -41.5z" />
<glyph unicode="b" horiz-adv-x="539" d="M59 39q-11 69 -16 145t-6.5 152t-0.5 150.5t3 140.5q-4 28 7 44t26 19t29 -7.5t16 -35.5q1 -5 1 -25t-0.5 -43.5t-0.5 -43.5v-25l3 -31l6 -48q3 -25 6 -47t5 -31q47 46 96.5 57t94.5 -3t83 -47.5t61.5 -76.5t30 -90t-10 -87.5t-59.5 -69.5t-119 -36q-36 -3 -68.5 -4 t-63 3t-61 13.5t-62.5 26.5zM157 118q3 -5 8.5 -11.5t12 -13t11.5 -11t7 -4.5h157q1 0 9 7l17 16l19 20l14 16q21 27 15.5 63.5t-27.5 68t-55.5 50.5t-69 10t-67.5 -53t-51 -139q-1 -4 -1 -11t1 -8z" />
<glyph unicode="c" horiz-adv-x="588" d="M166 20q-20 6 -40 20.5t-36 33t-27 40.5t-14 43q-13 93 -2.5 160t35 112t60 70t73.5 34.5t74.5 6t64 -16t41.5 -32t7 -40.5q-26 -6 -49.5 0t-46.5 12.5t-48 6.5t-53 -19q-44 -30 -72 -71t-39 -85t-3.5 -86t33.5 -73.5t70.5 -48t109.5 -9.5q33 4 64 24l63 42 q32 21 63.5 33t63.5 -1q12 -34 -7 -60.5t-55 -46.5t-84.5 -32.5t-95.5 -19t-88 -5.5t-62 8z" />
<glyph unicode="d" horiz-adv-x="569" d="M118 20q-61 30 -87.5 78t-10.5 118q9 41 33 72t57.5 54t74 39t82 26t81.5 15.5t74 8.5v353q7 2 17.5 3t21 -0.5t19 -6.5t11.5 -15q17 -180 20.5 -363.5t-1.5 -362.5q-46 5 -97 -5l-103 -21q-51 -10 -100.5 -12t-91.5 19zM118 118q7 -24 29 -35t52 -13.5t65 2.5t67.5 13 t59.5 17t41 16q7 82 -4.5 133.5t-35 77.5t-56 30t-66 -8t-65.5 -37t-54.5 -57.5t-32.5 -68.5t0 -70z" />
<glyph unicode="e" horiz-adv-x="518" d="M68 118q-2 2 -5 10l-5 17q-3 9 -5.5 18t-3.5 13q-7 46 -8 103t6.5 114.5t25.5 110t51 89.5t81.5 53t117.5 1q19 -4 42.5 -21.5t45 -42.5t38 -54t21.5 -55.5t-6 -48.5t-43 -33l-47 -7l-71 -12l-71 -11q-33 -6 -46 -9q-3 -1 -12 -3l-18 -6q-9 -3 -17.5 -6.5t-11.5 -4.5 q-2 -19 -2 -50t4 -64.5t14 -66t28 -54.5t45.5 -29.5t67.5 9.5l251 100h40q4 -9 -17.5 -35.5t-61.5 -55.5t-93 -52.5t-110.5 -27.5t-116 20t-108.5 91zM166 510q-2 -3 -5 -11l-5 -18l-6 -18q-2 -9 -3 -12q81 -7 129 0t70.5 22t23.5 34t-12.5 36.5t-38 28.5t-52 10.5t-55 -17 t-46.5 -55.5z" />
<glyph unicode="f" d="M255 137q-2 7 -4.5 17t-5.5 19.5t-5.5 16t-3.5 6.5l-196 39l-6 9q-7 9 -11 20.5t-2 20.5t19 9h176q1 42 0.5 101t2 123.5t10.5 129t26 117.5q18 55 54.5 85t79 40.5t86 4t76.5 -25t50 -46t7 -58.5q-23 -8 -44.5 -1.5t-42.5 18.5l-41 23q-20 12 -40.5 14.5t-42 -9 t-44.5 -45.5l-10 -19l-13 -25q-7 -13 -11.5 -23t-4.5 -12v-372h235q11 -10 -1 -20t-36 -19t-54 -17l-58 -15q-28 -8 -47 -14.5t-19 -12.5v-196h-59q-1 6 -3.5 23t-5.5 35.5t-6.5 35.5t-4.5 23z" />
<glyph unicode="g" horiz-adv-x="451" d="M127 -421q-59 23 -107 66t-89 90q-6 9 -0.5 22.5t16 24t23 15t20.5 -2.5q17 -17 33 -41.5t34 -48t39.5 -42.5t50.5 -25q52 -11 89 0.5t62 38.5t39 67t19.5 85t3 91.5t-10 87.5t-19.5 73t-26 48q-88 -42 -144.5 -44t-87 23t-38 69.5t2 95t34 100t58.5 85t74 50t81 -6.5 q54 -27 78 -61t32 -74t6.5 -85t1.5 -94q1 -33 6 -83t8.5 -108t3.5 -119.5t-8 -117.5t-26.5 -101.5t-51.5 -72.5t-84 -30.5t-123 25.5zM107 186q1 -3 8.5 -10.5t11.5 -8.5q42 -9 77 9t59 51t35 75t6 81q-5 36 -23.5 43.5t-42.5 -4t-49.5 -38t-45.5 -60.5t-31 -70.5t-5 -67.5z " />
<glyph unicode="h" horiz-adv-x="549" d="M39 78l3 82l3 125q2 69 4 146t4 146l3 125l3 82q18 6 32.5 1t24.5 -17.5t15.5 -29t5.5 -32.5v-431l157 156q8 8 22.5 6t30 -9.5t28.5 -17.5t17 -18q24 -48 44 -92.5t36.5 -89t30.5 -91t26 -99.5q-15 -30 -35 -20t-41 43.5t-42 80.5l-41 93l-33 78q-15 33 -23 38 q-31 -20 -52.5 -47t-37.5 -58t-29 -63t-28.5 -62.5t-36.5 -57t-52 -45.5q-3 1 -9 6l-12 12l-11 12q-6 6 -7 9v39z" />
<glyph unicode="i" horiz-adv-x="171" d="M63 39q-1 3 -2 33l-3 74q-1 44 -3 95.5t-4 97.5l-4 81q-1 35 -2 45q-2 20 9.5 35.5t26 22t27.5 3t15 -21.5l18 -445q1 -11 -4.5 -21.5t-14.5 -18.5t-20 -13t-20 -6q-2 2 -5 8l-6 11q-3 6 -5.5 11.5t-2.5 8.5zM54 743q-2 5 -2 19.5t2 19.5q39 10 56 4.5t19.5 -17.5t-6 -26 t-21.5 -21.5t-27 -4.5t-21 26z" />
<glyph unicode="j" horiz-adv-x="392" d="M71 -377q-24 10 -52 34.5t-50 55.5t-33 64.5t-2 60.5q11 6 30 -13.5t41.5 -47.5t47.5 -56t49.5 -38.5t47 4.5t39.5 73q3 82 -1 162.5t-10 161t-10 161.5t1 162h40q1 0 3.5 -9t5.5 -22l6 -26q3 -13 4 -22l6 -49l8 -72l8 -82l8 -80l6 -68l3 -41q2 -32 2.5 -73t-5 -82.5 t-17.5 -78.5t-34.5 -61.5t-57 -31t-84.5 13.5zM150 564q-1 3 -1.5 11.5t-0.5 18t0.5 18t1.5 11.5q10 5 23 3.5t24 -7.5t19.5 -15.5t11.5 -20.5q5 -19 -5.5 -29.5t-25.5 -13t-29.5 3.5t-17.5 20z" />
<glyph unicode="k" horiz-adv-x="637" d="M412 157q-4 4 -15 13l-24 18l-24 17q-11 8 -16 11q-19 12 -53 36l-68 48l-58 44q-24 18 -25 17l8 -302q0 -15 -11 -19.5t-25 -2t-26.5 9t-15.5 12.5q-16 182 -20.5 362t0.5 363q3 1 11 1h18h18q9 0 12 -1q7 -2 18 -9t11 -10l-12 -258q18 12 47 35l60 48l61 47 q29 23 47 35q24 16 44 10.5t30 -21t8 -35.5t-23 -33l-32 -17l-45 -24l-44 -24q-22 -11 -33 -18q-5 -4 -16.5 -14.5t-23.5 -23.5l-24 -25q-11 -11 -14 -16q28 -38 67.5 -68.5t84.5 -57.5l91 -53q46 -27 86.5 -57.5t72.5 -68.5t49 -87q6 -19 -7 -27.5t-33 -11.5q-8 9 -30 32 l-47 47l-47 47z" />
<glyph unicode="l" horiz-adv-x="176" d="M39 39q-2 53 -2.5 122.5t-0.5 147.5t1.5 160.5t4.5 161.5t8 151t12 128q7 19 19.5 21t24.5 -4t22 -17.5t12 -19.5v-18v-44q0 -27 -0.5 -59t-1 -60.5t-1 -51t-0.5 -30.5l-3 -71l-3 -106q-2 -60 -4 -126.5t-4 -125.5l-3 -108l-3 -70q-5 -15 -18 -21t-27 -3t-24 14t-9 29z " />
<glyph unicode="m" horiz-adv-x="902" d="M774 39q1 25 5.5 69.5t5.5 96t-3 103t-20 91.5t-45.5 61t-79.5 11l-20 -28l-30 -41l-29 -42q-14 -19 -19 -27q-3 -5 -10.5 -19.5t-9.5 -19.5q-5 -13 -16 -47l-24 -71l-23 -71l-15 -46q-9 -6 -20 -12t-21.5 -8t-20.5 2t-17 18l-4 38l-5 59q-3 32 -6 60t-4 39q0 2 -2.5 15 t-7 30.5t-11 36.5t-15 33.5t-19.5 21t-24 0.5q-4 -2 -11 -9.5t-8 -9.5l-118 -314q-5 -13 -16 -18t-23.5 -4t-23.5 7t-15 15l-3 43l-3 66l-4 77l-4 77l-4 66q-1 29 -2 43q-2 43 6 56.5t20.5 9.5t28.5 -21t29.5 -35.5t23 -33.5t10.5 -15q32 59 59 82t50.5 20.5t44.5 -23.5 t43 -50l45 -58q24 -30 52 -49q18 36 47.5 79t65 80.5t74.5 63t76.5 26.5t70.5 -29t58 -103q17 -50 23 -100t6 -100.5t-3.5 -103t-5.5 -107.5q-13 -9 -26 -15.5t-23.5 -6t-18.5 9.5t-11 31z" />
<glyph unicode="n" d="M519 20q-3 48 -9 106t-16 115.5t-24 108.5t-33 86.5t-43.5 49.5t-55.5 -3.5t-68.5 -72t-83.5 -155.5q-5 -12 -16 -42l-25 -64q-13 -35 -23.5 -66t-14.5 -44q-8 -19 -20 -21t-24 4t-22 17.5t-12 19.5q-5 108 -1 216.5t21 214.5q11 22 22 24t22 -7t20.5 -26.5t17 -35.5 t12 -33t4.5 -20q22 18 40 46l38 55q20 27 43 49t55 27q50 8 88 -5t66 -41t47 -68.5t31.5 -87t18.5 -96t8 -96t0.5 -87t-4.5 -68.5q-11 -21 -29.5 -21t-29.5 21z" />
<glyph unicode="o" horiz-adv-x="559" d="M166 20q-58 23 -91.5 59.5t-47 80.5t-9 91.5t24 93.5t52 86.5t74 69t91 42t102.5 6.5q44 -6 75.5 -39t50 -81t23.5 -105.5t-5.5 -113t-36 -104t-67 -78t-100.5 -34.5t-136 26zM166 98q57 -38 105.5 -32t84 39.5t56 86t21 106.5t-20.5 101.5t-69 71.5q-27 14 -63.5 0 t-71.5 -45t-63 -74.5t-39 -89.5t1.5 -89.5t58.5 -74.5z" />
<glyph unicode="p" horiz-adv-x="569" d="M98 -421q-2 2 -5 8l-6 11q-3 6 -5.5 12t-3.5 8q-13 114 -21.5 212.5t-11.5 193t0 191t14 207.5q26 24 66 39.5t87 22t96.5 4.5t94 -13t79 -30.5t52 -48.5t13.5 -66.5t-37 -84.5q-10 -13 -32 -34l-47 -42l-47 -38t-31 -23t-29.5 -14.5t-45 -20t-50.5 -26t-46.5 -32 t-33.5 -38.5t-11 -45l7 -79l8 -91q4 -48 5.5 -95.5t-0.5 -87.5q-10 -13 -18 -18t-15 -4t-13.5 7t-12.5 15zM137 245q-1 -8 -1.5 -27t-0.5 -41t0.5 -41.5t1.5 -27.5q26 -10 69.5 7t89 48t85.5 70.5t59.5 75.5t11 62t-59.5 31q-72 7 -118.5 9t-75 -12t-42.5 -49.5t-19 -104.5z " />
<glyph unicode="q" horiz-adv-x="529" d="M362 117q-87 -42 -149.5 -45t-102 20t-58 65.5t-18.5 91.5t18 98t50.5 85.5t78.5 54t103 3.5q11 -3 39 -12t59 -22.5t58.5 -29.5t39.5 -34q1 -8 1 -28v-41v-42q0 -19 -1 -26q0 -5 -3 -25.5t-7 -43.5t-7 -43.5t-3 -25.5q-1 -10 -1 -31t-0.5 -48t0 -56.5t0.5 -57.5v-49 q0 -21 1 -32q0 -7 3 -33l7 -56l6 -55q3 -26 4 -33q3 -31 -8.5 -50.5t-26.5 -27.5t-28.5 -3t-14.5 23zM107 196q0 -3 2.5 -8.5t5.5 -11.5l7 -12q3 -5 5 -7q73 -9 122 2.5t77.5 35t38.5 56t6.5 65t-19 60.5t-38.5 44.5t-51 16.5t-58 -25q-31 -26 -52 -47.5t-33 -45.5 t-15.5 -53t2.5 -70z" />
<glyph unicode="r" horiz-adv-x="471" d="M88 20q-17 24 -26 57t-13 60q0 4 -2 31l-6 60q-4 35 -7 69.5t-5 55.5q-1 6 15 21.5t40 34.5l53 40q29 21 55 38l46 29q20 12 26 13q9 2 31.5 3t47.5 1t47 -1t31 -3q8 -3 14 -12t7 -18.5t-3.5 -17.5t-17.5 -10q-72 -15 -119.5 -35.5t-77 -48.5t-44 -65t-21 -84.5 t-8 -106.5t-4.5 -131q-22 -8 -35 -2.5t-24 22.5z" />
<glyph unicode="s" horiz-adv-x="461" d="M39 78q-3 4 -4 15.5t-1 24t1 23.5t4 16q22 -10 62.5 -15t85 -3.5t86 11.5t66.5 31t27 53.5t-33 79.5q-5 6 -25 16l-46 25l-60 32q-33 18 -63 37.5t-54 40t-35.5 41.5t-6 42t34.5 40q21 12 45 22.5t54 16t68 2t88 -20.5v-39q-3 1 -30.5 2t-60 -1.5t-59 -11.5t-26.5 -29 v-19q90 -41 152.5 -92.5t94 -104.5t31 -102.5t-37 -86t-110.5 -55.5t-189 -10q-6 0 -15.5 2.5t-18.5 5.5t-16.5 6t-8.5 5z" />
<glyph unicode="t" horiz-adv-x="578" d="M275 20l-6 8l-6 12l-6 12q-2 5 -2 7l-43 343h-172q-14 0 -19.5 13t-3 29t13 30t28.5 16h21q18 0 38 -0.5t37 -0.5t22 1q4 1 11 8.5t8 11.5l40 333l19 20q20 -15 35.5 -34.5t23.5 -44.5q-1 -11 -4 -38.5t-6 -59.5l-6 -59l-3 -39q-3 -38 8 -56.5t31.5 -24.5t48.5 -2.5 t57 9.5l57 11q29 6 52 4q5 -13 2 -33t-21 -25l-216 -59l-19 -20q1 -13 4 -40l7 -63l8 -73l8 -74l7 -62q3 -28 5 -41q1 -15 -4.5 -25t-15 -13t-20.5 1.5t-19 17.5z" />
<glyph unicode="u" horiz-adv-x="716" d="M539 20q-29 11 -51.5 30.5t-41 43.5t-34.5 51l-30 51q-66 -75 -117 -109.5t-89 -37.5t-64.5 21.5t-43 66t-24.5 96.5t-9.5 114t2.5 116.5t12 105.5q10 20 29 20t29 -20q-1 -12 -1 -36.5t-0.5 -55.5t-0.5 -65t0.5 -65t0.5 -55.5t1 -36.5q3 -69 19.5 -95.5t40 -24.5t51 27 t53 58.5t45 70t27.5 62.5q3 10 9 35t12 53l11 53l7 35l20 20l39 -39q0 -14 3 -50l5 -78l6 -76.5t5 -50.5q5 -41 20.5 -68t36.5 -44.5t45 -28.5l46 -22q22 -11 40.5 -22.5t27.5 -30.5q9 -17 3 -26t-20 -11.5t-33.5 -0.5t-37.5 6t-32 8t-17 5z" />
<glyph unicode="v" horiz-adv-x="559" d="M236 20q-17 13 -39 44.5t-46 73.5t-47 91t-41.5 96.5t-31 90t-14.5 72t7.5 42t34.5 -0.5q22 -11 40 -47t33 -83t29 -97.5t28.5 -90t30 -62t35.5 -12.5q36 52 64.5 122t50 143t36.5 142l26 123q6 11 15.5 17.5t23.5 1.5q25 -8 36.5 -17t14 -20.5t-1.5 -26.5t-10 -34 q-3 -8 -11 -36l-17 -63l-21 -77l-21 -78l-18 -63q-7 -27 -10 -36q-3 -8 -16 -35l-28 -57l-31 -61q-15 -29 -23 -43q-11 -18 -19 -27.5t-16 -11.5t-18 3.5t-25 16.5z" />
<glyph unicode="w" horiz-adv-x="765" d="M118 39q-4 9 -13 34t-18 53l-17 54q-8 25 -11 36q-1 6 -4.5 24t-7 42t-8 52t-8 54t-7 48t-4.5 35l-3 15q-2 14 -2 31.5t5 33t20 18.5l58 -59q1 -10 4 -31l6 -49l8 -57l9 -57q4 -28 7.5 -49.5t5.5 -31.5q0 -3 2.5 -8.5t5.5 -11.5l6 -11q3 -6 5 -8q21 49 30 82.5t15 65.5 l12 70q7 37 22 96q7 28 18 37t24.5 5.5t28 -16t27.5 -28.5t23 -32l16 -25q3 -6 12 -22l21 -39l25 -47l26 -47l21 -39l13 -22q1 -3 6 -8l12 -12l12 -11q6 -6 9 -8l19 20q3 3 11 27l17 55q10 31 18.5 63t12.5 51l6 37q4 24 8 54.5t8 65t8 65t6 54.5l3 37q2 4 6 9t9.5 8.5t12 5 t12.5 -2.5q22 -15 31 -54.5t8 -94t-10.5 -117.5t-24.5 -125.5t-33.5 -118.5t-38 -95.5t-38 -57.5t-32.5 -4q-38 30 -65.5 70t-53 81t-52.5 79.5t-64 64.5l-19 -20l-18 -78q-9 -43 -21 -87.5t-27 -88t-33 -79.5q-8 -16 -19 -19.5t-22.5 1t-21 15t-15.5 22.5z" />
<glyph unicode="x" horiz-adv-x="569" d="M39 39q-3 6 -1 15.5t6 18.5t8.5 16t6.5 9l15 22l24 36l28 40l29 40l24 36q11 15 17 22l-137 275q-3 5 0 13.5t9 16t14 11t16 -1.5q31 -21 47.5 -53t31 -66.5t31 -66t47.5 -49.5q30 23 53 53.5t44.5 62.5t45 63t53.5 56q33 -22 33.5 -51.5t-16 -62.5t-44.5 -67l-51 -63 q-24 -30 -37.5 -53.5t-2.5 -35.5l196 -216v-39q-20 -5 -41.5 0.5t-36.5 18.5l-32 31l-48 47l-47 47q-22 23 -30 32q-14 7 -25.5 4.5t-21 -9t-17.5 -16.5l-15 -18l-20 -27l-30 -41l-29 -41q-14 -20 -19 -28q-11 -3 -22.5 -4.5t-22 0t-19 7t-14.5 16.5z" />
<glyph unicode="y" horiz-adv-x="588" d="M295 -421q-16 31 -14.5 67.5t11.5 75.5t25 79.5t26.5 80.5t16 77.5t-6.5 70.5q-10 30 -39 64t-66 70l-77 73q-40 37 -73.5 74.5t-55.5 75t-22 74.5q0 4 4.5 11t10.5 13t12.5 10.5t11.5 4.5q14 -10 40 -45l58 -80l67 -90q36 -46 68.5 -77.5t59 -41t41.5 19.5q2 11 8 34 l13 53l16 61l17 61l15 52l9 34q7 25 22.5 34.5t29.5 5.5t22.5 -20t3.5 -40q-1 -8 -7 -33l-14 -60l-18 -73l-18 -73l-14 -60q-6 -26 -7 -34q-5 -26 -2 -50t3.5 -46.5t-7.5 -42.5t-33 -38l-59 -372q-2 -14 -13.5 -18t-25 -2t-25 8t-14.5 12z" />
<glyph unicode="z" horiz-adv-x="863" d="M68 39q-4 6 -1.5 15.5t7 19t9.5 16.5l5 8l314 412h-334l-39 39l20 20q1 1 22 4l55 9q34 6 77 12l86 12q43 7 83 12t69 9q46 6 64.5 -11t19 -45t-13 -61t-31.5 -59q-8 -12 -26 -37l-41 -56l-49 -65l-49 -65l-42 -56l-28 -35v-39q17 -2 49.5 2.5t74.5 12.5l90 19 q49 10 98 18t95.5 12.5t84 2.5t63 -13t33.5 -34q6 -18 -6.5 -29.5t-31 -17.5t-37 -8.5t-23.5 -3.5q-21 -3 -62 -8l-91 -11l-106 -12q-56 -6 -106 -12t-89 -10t-56 -6q-31 -3 -53.5 -6.5t-40.5 -1t-32.5 12.5t-30.5 34z" />
<glyph unicode="{" horiz-adv-x="569" d="M334 20q-49 10 -94.5 33.5t-84 57t-67.5 75.5t-45 89t-18 96.5t15 99.5q9 27 29 53t43.5 49t46.5 42l37 32q6 17 -1 30t-15 25.5t-11.5 27.5t8.5 35q1 2 10 8t19 12l19 11q9 6 11 8q18 18 21 39.5t-2 45t-17 47.5l-24 46l-23 42q-11 20 -14 35q-14 61 -3 121t44 102 t87.5 58.5t126.5 -7.5q6 -13 -10 -22t-43 -18.5t-58.5 -22.5t-55 -35t-34 -55t4.5 -82q2 -7 14 -33l24 -56l26 -55q11 -26 14 -32q12 -29 13.5 -53.5t-2.5 -46.5t-11.5 -44t-14 -45t-8.5 -49t4 -57l-177 -176q-27 -27 -30.5 -61.5t8.5 -71.5t36.5 -73.5t53 -67t57.5 -51.5 t52 -28q4 -1 22 -4t39 -6l44 -6q21 -3 32 -4q69 -6 99.5 -14.5t32 -17.5t-20 -17t-55 -12.5t-75 -4.5t-79.5 8z" />
<glyph unicode="|" horiz-adv-x="186" d="M49 20q-4 74 -10 159t-11.5 175.5t-8.5 183.5t0.5 183.5t14.5 176t34 161.5q34 8 52 -0.5t25.5 -27.5t6 -45.5t-6 -53t-10.5 -50.5t-8 -39v-823q0 -20 -12.5 -22.5t-26.5 2.5q-18 5 -39 20z" />
<glyph unicode="}" horiz-adv-x="500" d="M177 59q4 15 24.5 29t49 30.5t58.5 36.5t53 48t33 64.5t-2 85.5q-11 10 -36 38l-53 60l-53 59l-35 39q-9 11 -15 26.5t-10 32t-7 32t-7 27.5q-24 72 -22.5 119.5t17.5 83t40 64.5t45 64t33.5 81.5t4.5 116.5q-3 22 -31 42.5t-66 39t-78.5 35t-68 31t-34.5 26.5t23 22 q21 7 47 5t52.5 -9t51.5 -17l45 -18q69 -28 105 -66t47.5 -82t3.5 -91.5t-26.5 -93.5t-42.5 -88l-45 -77q-21 -34 -33.5 -58t-8.5 -32q9 -19 28 -26.5t40 -13t40 -13t29 -26.5q6 -13 0.5 -22t-17.5 -16t-26.5 -13.5t-25 -15t-14.5 -20.5t5 -30q14 -29 40 -54l54 -50 q27 -25 50 -52t32 -60q8 -32 -1 -74t-30 -85t-52 -83t-66 -68.5t-72.5 -41.5t-72.5 -1q-1 3 -1.5 11.5t-0.5 18t0.5 18t1.5 11.5z" />
<glyph unicode="~" horiz-adv-x="755" d="M388 851q-24 13 -36.5 40.5t-22.5 55.5t-22.5 51.5t-36.5 29.5q-12 3 -37.5 -8.5t-57.5 -27.5l-62 -33q-31 -17 -53.5 -24.5t-31 -1.5t6.5 36q7 9 22.5 26.5t36 37.5t44.5 39.5t47.5 34t45.5 20.5t39 -1q28 -20 50.5 -53t40.5 -66l34 -61q16 -28 32 -36q37 -14 74 -12.5 t70.5 15.5t62 38.5t48.5 56.5q28 9 40.5 1.5t11.5 -25t-14 -41.5t-36 -47.5t-54.5 -43.5t-70 -29t-82 -3.5t-89.5 31.5z" />
<glyph unicode="&#xa1;" horiz-adv-x="249" d="M81 937q26 13 50 7t36.5 -22t10 -36t-30.5 -34q-12 -6 -30.5 3t-32.5 24t-17.5 32t14.5 26zM106 634q0 11 10.5 20t22.5 13t22.5 0.5t10.5 -16.5v-630q0 -12 -10.5 -17t-22.5 -3t-22.5 11t-10.5 26v596z" />
<glyph unicode="&#xa2;" horiz-adv-x="588" d="M338 146q1 -70 -6 -102.5t-17.5 -38.5t-22 8t-20.5 36.5t-12.5 47.5t1.5 42q-28 -1 -50.5 1t-36.5 7q-20 6 -40 20.5t-36 33t-27 40.5t-14 43q-13 94 -2.5 161t35 111.5t60 69.5t73.5 34q-5 60 2 96t20.5 51t29.5 11t29 -24t19.5 -54t0.5 -78q44 -10 69.5 -33t16.5 -51 q-23 -6 -43.5 -1.5t-40.5 10.5l10 -377q30 10 58.5 30t57 38t57 27.5t57.5 -2.5q11 -33 -6 -59t-51 -45.5t-79.5 -32.5t-91.5 -20zM213 578q-41 -28 -68 -65t-39.5 -77.5t-9.5 -80.5t21.5 -72.5t53 -54t85.5 -25.5q-11 102 -22.5 193.5t-12.5 186.5q-2 -2 -4 -2.5t-4 -2.5z " />
<glyph unicode="&#xa3;" horiz-adv-x="765" d="M-46 371q-2 1 -5 6l-7 12l-5.5 12.5t-3.5 7.5q3 7 15.5 12.5t30.5 10t39.5 8t42.5 6.5q3 32 5.5 63t5 58t4 47.5t2.5 32.5q31 63 72 101.5t84.5 54.5t87.5 10.5t82.5 -31t68 -70t45.5 -105.5q6 -24 -8 -21.5t-41 18.5l-63 38q-37 23 -75 39.5t-74.5 20.5t-63.5 -18 t-42 -76.5t-10 -153.5q28 4 47.5 8t36.5 8.5t36.5 8.5t48.5 7q10 -5 21.5 -18t18 -28.5t3 -30t-23.5 -21.5q-40 2 -90.5 -8t-102.5 -19q-1 -27 -1 -65v-73q0 -35 0.5 -60t1.5 -26q64 38 119.5 56.5t103.5 23.5t88.5 -1.5t73.5 -19t59 -29.5t45 -32q29 -24 38.5 -48.5 t3 -40.5t-28.5 -18t-56 21q-40 27 -90 45.5t-105.5 19.5t-114 -20.5t-116.5 -73.5q-47 -5 -73.5 11t-38.5 44.5t-12 65.5t6 75q2 17 5 53t8 82q-29 -2 -54 2.5t-44 17.5z" />
<glyph unicode="&#xa8;" horiz-adv-x="833" d="M193 1066q-13 9 -21.5 17.5t-12.5 18.5t-3 23t7 30q7 22 24.5 28t37 1.5t36.5 -16.5t23 -27q9 -23 3.5 -43t-20.5 -32t-35 -13t-39 13zM372 1068q-25 18 -34 36t4 52q7 22 24.5 28.5t37 2t36.5 -17t23 -27.5q9 -23 3.5 -42.5t-20.5 -31.5t-35 -13t-39 13z" />
<glyph unicode="&#xaa;" d="M480 39q-14 9 -27 35l-27 52q-14 26 -29.5 43t-34.5 7l-40 -60q-21 -30 -45.5 -50.5t-56 -29t-73.5 2.5q-41 10 -66.5 40t-38 71.5t-12.5 91t11.5 98.5t33.5 93.5t53 77.5t70.5 49.5t85.5 8.5q43 -7 71 -34t46.5 -65.5t29 -84.5t19.5 -92l16 -88q9 -42 23 -71.5 t35.5 -43.5t56.5 -4q40 38 64 51t35 8.5t9.5 -21.5t-13 -37.5t-31.5 -40t-45.5 -30t-56 -7t-63.5 29.5zM107 137q17 -42 42 -48t53 11t55 50.5t47.5 71.5t31.5 74t7 57l-7 27l-12 42q-6 22 -12 41t-8 27q-32 22 -58 21.5t-46.5 -16.5t-36 -45t-27 -64.5t-18 -73.5t-10 -72 t-3.5 -61.5t2 -41.5z" />
<glyph unicode="&#xad;" horiz-adv-x="716" d="M40 432q-3 2 -10.5 9t-9.5 10q5 12 19 19.5t30 11.5t30 5.5t19 2.5q19 2 59 7l90 11l106 13l105 12l91 10l59 6q10 -5 21.5 -18t18 -28.5t3 -30t-23.5 -21.5q-27 2 -77 -3l-110 -11l-126 -14q-66 -7 -124 -9.5t-103.5 1t-66.5 17.5z" />
<glyph unicode="&#xb2;" horiz-adv-x="667" d="M107 20q-28 14 -35.5 34.5t-0.5 45.5t25.5 52.5t42.5 56.5l49 58l47 55q21 26 35 49.5t14 40.5v39q-11 2 -36 -3.5t-54.5 -13t-59.5 -14t-52 -5t-32.5 14t-0.5 41.5q1 2 8 9.5t11 9.5q34 20 61 32t55 18t61 7.5t78 1.5q44 -16 56 -44.5t3 -65.5t-33.5 -78.5t-54.5 -82.5 l-57 -79q-28 -38 -45 -67t-16.5 -46t29.5 -17h412l20 -30q-5 -9 -15 -16t-22 -11.5t-23.5 -7.5t-18.5 -4h-43q-29 -1 -65 -2h-77.5t-77.5 0.5t-66 0.5t-43 1q-5 0 -16.5 2.5t-23.5 5.5l-24 7q-11 3 -15 5z" />
<glyph unicode="&#xb3;" horiz-adv-x="608" d="M147 20q-9 3 -20 13.5t-17 22.5t-3.5 24t20.5 18q17 6 57 1.5t87.5 -9t96.5 -4t84.5 16t51 51t-3.5 101.5q-1 3 -6 9.5t-11.5 12.5t-13 11t-9.5 6q-10 1 -35 1h-53h-53q-25 0 -35 -1q-12 -1 -28.5 -8t-33 -11.5t-32 -2t-24.5 21.5q-1 2 -1 10t1 10q11 12 33.5 34t43.5 49 t34.5 56.5t6.5 56.5q-17 1 -48 -4l-68 -10q-35 -6 -68 -9t-51 3q-24 8 -19 24t28.5 33t60.5 32.5t77 22t77 2t60.5 -27.5t28.5 -67.5t-19 -116.5q121 -29 177 -76.5t62.5 -99.5t-28.5 -101.5t-97.5 -81t-143.5 -38.5t-166 25z" />
<glyph unicode="&#xb4;" horiz-adv-x="674" d="M194 1037l-58 -6q-10 12 0.5 32.5t34.5 44t57.5 48.5t69.5 45t70 33t59.5 14t38 -12.5t5.5 -47.5q-32 -8 -73 -28t-81 -43.5t-73 -45.5z" />
<glyph unicode="&#xb8;" horiz-adv-x="468" d="M67 -339q-3 3 -4 11.5t-1 18t1 18t4 11.5q108 -6 171 -1t92 17.5t29 31t-18 39t-49.5 41t-65 38.5t-64.5 31t-48 18l-9 110l68 10l5 -70q85 -31 144 -69.5t89 -78.5t29.5 -77t-35 -64.5t-104.5 -41.5t-179 -7q-5 0 -14 2l-18 4q-9 2 -15.5 4.5t-7.5 3.5z" />
<glyph unicode="&#xb9;" horiz-adv-x="157" d="M49 20q-18 27 -24 53.5t-5.5 55t4 59.5t5.5 67l3 62q1 36 3.5 75t4.5 77.5t4 69t3 49.5t2 20l39 39q14 -10 24 -26.5t15 -32.5q-1 -11 -4 -38.5t-6 -59t-6 -59.5t-4 -39v-19q-1 -20 -2.5 -45.5t-2.5 -53.5l-4 -59l-2 -58l-8 -137l-20 -20q-3 2 -10 9.5t-9 10.5z" />
<glyph unicode="&#xba;" horiz-adv-x="559" d="M166 20q-58 23 -91.5 59.5t-47 80.5t-9 91.5t24 93.5t52 86.5t74 69t91 42t102.5 6.5q44 -6 75.5 -39t50 -81t23.5 -105.5t-5.5 -113t-36 -104t-67 -78t-100.5 -34.5t-136 26zM166 98q57 -38 105.5 -32t84 39.5t56 86t21 106.5t-20.5 101.5t-69 71.5q-27 14 -63.5 0 t-71.5 -45t-63 -74.5t-39 -89.5t1.5 -89.5t58.5 -74.5z" />
<glyph unicode="&#xbc;" horiz-adv-x="1128" d="M962 314q-16 2 -55 -3t-88 -10t-100.5 -8.5t-93 0.5t-66.5 17.5t-19 42.5l59 314q2 12 14 18t25.5 6t25 -6t13.5 -18q2 -13 -1.5 -40.5t-9 -60.5t-9.5 -68.5t-2.5 -63.5t11 -45.5t31.5 -15.5q19 1 50.5 4.5t63 6.5t55.5 5.5t27 2.5q7 1 17 4l20 6q9 3 15.5 6t6.5 4 l39 313q2 14 10 18.5t18 2.5t19 -8t12 -13q-1 -10 -1 -31.5t-0.5 -48.5t0 -57t0.5 -57v-49q0 -21 1 -31q6 -107 10.5 -214.5t-10.5 -216.5q-2 -17 -16 -22t-30 -1t-29 15t-13 27v275zM177 20q-1 3 -1.5 11.5t-0.5 18t0.5 17.5t1.5 11l235 706l40 79q0 2 7.5 2t11.5 -2 q13 -7 19 -19t7.5 -26t-0.5 -28t-6 -25l-216 -667q0 -1 -5.5 -14.5t-14 -30t-19 -32.5t-20.5 -21q-11 -5 -23.5 2t-15.5 18zM49 20q-18 27 -24 53.5t-5.5 55t4 59.5t5.5 67l3 62q1 36 3.5 75t4.5 77.5t4 69t3 49.5t2 20l39 39q14 -10 24 -26.5t15 -32.5q-1 -11 -4 -38.5 t-6 -59t-6 -59.5t-4 -39v-19q-1 -20 -2.5 -45.5t-2.5 -53.5l-4 -59l-2 -58l-8 -137l-20 -20q-3 2 -10 9.5t-9 10.5z" />
<glyph unicode="&#xbd;" horiz-adv-x="1187" d="M627 20q-28 14 -35.5 34.5t-0.5 45.5t25.5 52.5t42.5 56.5l49 58l47 55q21 26 35 49.5t14 40.5v39q-11 2 -36 -3.5t-54.5 -13t-59.5 -14t-52 -5t-32.5 14t-0.5 41.5q1 2 8 9.5t11 9.5q34 20 61 32t55 18t61 7.5t78 1.5q44 -16 56 -44.5t3 -65.5t-33.5 -78.5t-54.5 -82.5 l-57 -79q-28 -38 -45 -67t-16.5 -46t29.5 -17h412l20 -30q-5 -9 -15 -16t-22 -11.5t-23.5 -7.5t-18.5 -4h-43q-29 -1 -65 -2h-77.5t-77.5 0.5t-66 0.5t-43 1q-5 0 -16.5 2.5t-23.5 5.5l-24 7q-11 3 -15 5zM177 20q-1 3 -1.5 11.5t-0.5 18t0.5 17.5t1.5 11l235 706l40 79 q0 2 7.5 2t11.5 -2q13 -7 19 -19t7.5 -26t-0.5 -28t-6 -25l-216 -667q0 -1 -5.5 -14.5t-14 -30t-19 -32.5t-20.5 -21q-11 -5 -23.5 2t-15.5 18zM49 20q-18 27 -24 53.5t-5.5 55t4 59.5t5.5 67l3 62q1 36 3.5 75t4.5 77.5t4 69t3 49.5t2 20l39 39q14 -10 24 -26.5t15 -32.5 q-1 -11 -4 -38.5t-6 -59t-6 -59.5t-4 -39v-19q-1 -20 -2.5 -45.5t-2.5 -53.5l-4 -59l-2 -58l-8 -137l-20 -20q-3 2 -10 9.5t-9 10.5z" />
<glyph unicode="&#xbe;" horiz-adv-x="1579" d="M1413 314q-16 2 -55 -3t-88 -10t-100.5 -8.5t-93 0.5t-66.5 17.5t-19 42.5l59 314q2 12 14 18t25.5 6t25 -6t13.5 -18q2 -13 -1.5 -40.5t-9 -60.5t-9.5 -68.5t-2.5 -63.5t11 -45.5t31.5 -15.5q19 1 50.5 4.5t63 6.5t55.5 5.5t27 2.5q7 1 17 4l19 6q10 3 16.5 6t6.5 4 l39 313q2 14 10 18.5t18 2.5t19 -8t12 -13q-1 -10 -1 -31.5t-0.5 -48.5t0 -57t0.5 -57v-49q0 -21 1 -31q6 -107 10.5 -214.5t-10.5 -216.5q-2 -17 -16 -22t-30 -1t-29 15t-13 27v275zM628 20q-1 3 -1.5 11.5t-0.5 18t0.5 17.5t1.5 11l235 706l40 79q0 2 7.5 2t11.5 -2 q13 -7 19 -19t7.5 -26t-0.5 -28t-6 -25l-216 -667q0 -1 -5.5 -14.5t-14 -30t-19 -32.5t-20.5 -21q-11 -5 -23.5 2t-15.5 18zM147 20q-9 3 -20 13.5t-17 22.5t-3.5 24t20.5 18q17 6 57 1.5t87.5 -9t96.5 -4t84.5 16t51 51t-3.5 101.5q-1 3 -6 9.5t-11.5 12.5t-13 11t-9.5 6 q-10 1 -35 1h-53h-53q-25 0 -35 -1q-12 -1 -28.5 -8t-33 -11.5t-32 -2t-24.5 21.5q-1 2 -1 10t1 10q11 12 33.5 34t43.5 49t34.5 56.5t6.5 56.5q-17 1 -48 -4l-68 -10q-35 -6 -68 -9t-51 3q-24 8 -19 24t28.5 33t60.5 32.5t77 22t77 2t60.5 -27.5t28.5 -67.5t-19 -116.5 q121 -29 177 -76.5t62.5 -99.5t-28.5 -101.5t-97.5 -81t-143.5 -38.5t-166 25z" />
<glyph unicode="&#xbf;" horiz-adv-x="696" d="M468 1006q11 -26 3.5 -42t-23 -22t-33 -2.5t-24.5 16t1.5 34t44.5 52.5l7 -6l9 -11l9 -11q5 -5 6 -8zM458 788q1 -24 4 -70l6 -95l6 -95q3 -46 4 -70q0 -3 0.5 -10.5t0.5 -16.5t-0.5 -16.5t-0.5 -10.5q-91 8 -156.5 -11t-108 -53.5t-62.5 -79t-19.5 -88.5t21 -82 t58.5 -59t93.5 -19.5t126.5 36.5q12 6 26 21.5t29 34.5l30 38q15 20 30.5 33.5t30 19t27.5 -3.5q8 -46 -12.5 -87.5t-59 -74t-90 -53.5t-105.5 -27t-104.5 6.5t-87 47t-54.5 94t-6 148.5q7 52 32.5 89t60 62t72.5 41t70.5 26.5t54 16.5t23.5 13q1 14 1 49v74v76q0 35 -1 49 q0 3 -5 18t-5 29.5t10.5 22.5t41.5 -3q3 -2 9.5 -8.5t8.5 -11.5z" />
<glyph unicode="&#xc0;" horiz-adv-x="725" d="M475 1105l30 -50q-7 -14 -30 -12.5t-54.5 13.5t-67.5 32t-69 44t-59 50t-37.5 48.5t-4.5 39.5t41 25q20 -27 55 -56t73 -55t72 -47zM637 39l39 -39q14 3 19 18.5t5.5 33t-2.5 31.5l-2 15l-98 255q-10 25 -3.5 41.5t11 29t-3 23t-44.5 24.5q-36 54 -66.5 127.5t-55 150 t-42.5 148.5l-32 123q-4 12 -15.5 18t-24 6t-24 -6t-14.5 -18l-157 -549q-15 -12 -30 -49t-27.5 -86t-21.5 -103t-12.5 -100.5t-0.5 -78t14 -34.5q30 -11 40.5 0.5t17.5 38.5q1 4 4 18t6 30.5t6 31t4 18.5l15 55l20 64l16 54q7 23 8 23l39 20h279zM225 471q-10 31 -2 77.5 t25 96.5t38 98t37 81q3 -5 10.5 -20t9.5 -20l12 -30l17 -44l21 -53l20 -53l17 -45q8 -20 11 -30q1 -3 1 -12v-17v-18q0 -8 -1 -11q-1 -5 -8.5 -12.5t-11.5 -7.5h-176q-3 0 -10.5 7.5t-9.5 12.5z" />
<glyph unicode="&#xc1;" horiz-adv-x="725" d="M194 1037l-58 -6q-10 12 0.5 32.5t34.5 44t57.5 48.5t69.5 45t70 33t59.5 14t38 -12.5t5.5 -47.5q-32 -8 -73 -28t-81 -43.5t-73 -45.5zM637 39l39 -39q14 3 19 18.5t5.5 33t-2.5 31.5l-2 15l-98 255q-10 25 -3.5 41.5t11 29t-3 23t-44.5 24.5q-36 54 -66.5 127.5 t-55 150t-42.5 148.5l-32 123q-4 12 -15.5 18t-24 6t-24 -6t-14.5 -18l-157 -549q-15 -12 -30 -49t-27.5 -86t-21.5 -103t-12.5 -100.5t-0.5 -78t14 -34.5q30 -11 40.5 0.5t17.5 38.5q1 4 4 18t6 30.5t6 31t4 18.5l15 55l19 64l17 54q7 23 8 23l39 20h279zM225 471 q-10 31 -2 77.5t25 96.5t38 98t37 81q3 -5 10.5 -20t9.5 -20l12 -30l17 -44l21 -53l20 -53l17 -45q8 -20 11 -30q1 -3 1 -12v-17v-18q0 -8 -1 -11q-1 -5 -8.5 -12.5t-11.5 -7.5h-176q-3 0 -10.5 7.5t-9.5 12.5z" />
<glyph unicode="&#xc2;" horiz-adv-x="725" d="M123 1043q6 9 21 26l32 39l37 46l39 45l33 37l21 25q5 7 14.5 16t18.5 16l16 13q7 6 7 5l15 -15l9 -13l21 -34l30 -48l33 -53l33 -51l26 -43q7 -11 4.5 -17.5t-27.5 -18.5l-160 180q-4 5 -20.5 -7.5t-38.5 -34t-47 -48.5l-46 -52q-21 -24 -35 -42t-14 -22l-36 22 q-1 9 4.5 17t9.5 12zM504 373h-279l-39 -20q-1 0 -8 -23l-17 -54l-19 -64l-15 -55q-1 -4 -4 -18.5t-6 -31t-6 -30.5t-4 -18q-7 -27 -17.5 -38.5t-40.5 -0.5q-11 3 -14 34.5t0.5 78t12.5 100.5t21.5 103t27.5 86t30 49l157 549q3 12 14.5 18t24 6t24 -6t15.5 -18l32 -123 q18 -72 42.5 -148.5t55 -150t66.5 -127.5q37 -14 44.5 -24.5t3 -23t-11 -29t3.5 -41.5l98 -255l2 -15q3 -14 2.5 -31.5t-5.5 -33t-19 -18.5l-39 39zM225 471q2 -5 9.5 -12.5t10.5 -7.5h176q4 0 11.5 7.5t8.5 12.5q1 3 1 11v18v18q0 8 -1 11q-3 10 -11 30l-18 45l-20 53 l-20 53l-18 44l-11 30q-2 5 -9.5 20t-10.5 20q-16 -33 -37 -81t-38 -98t-25 -96.5t2 -77.5z" />
<glyph unicode="&#xc3;" horiz-adv-x="725" d="M380 1049q-21 11 -32 34t-20.5 46.5t-20.5 43t-32 24.5q-10 2 -33.5 -7.5t-51.5 -22.5l-56 -28q-28 -14 -48 -20t-27.5 -1t5.5 30q9 12 34.5 37.5t57 49.5t64 39t55.5 6q25 -17 45 -45t37 -56l30 -51q14 -23 28 -30q33 -12 66.5 -10.5t63.5 13.5t55.5 32.5t43.5 47.5 q33 11 42 -3t-1.5 -39t-39 -53t-69 -46t-91 -19.5t-105.5 28.5zM504 373h-279l-39 -20q-1 0 -8 -22l-17 -54l-19 -65l-15 -55q-1 -4 -4 -18.5t-6 -31t-6 -30.5t-4 -18q-7 -27 -17.5 -38.5t-40.5 -0.5q-11 3 -14 34.5t0.5 78t12.5 100.5t21.5 103t27.5 86t30 49l157 549 q3 12 14.5 18t24 6t24 -6t15.5 -18l32 -123q18 -72 42.5 -148.5t55 -150t66.5 -127.5q37 -14 44.5 -24.5t3 -23t-11 -29t3.5 -41.5l98 -255l2 -14q3 -15 2.5 -32.5t-5.5 -33t-19 -18.5l-39 39zM225 471q2 -5 9.5 -12.5t10.5 -7.5h176q4 0 11.5 7.5t8.5 12.5q1 3 1 12v17v18 q0 8 -1 11q-3 10 -11 30l-18 45l-20 53l-20 53l-18 45l-11 29q-2 5 -9.5 20t-10.5 20q-16 -33 -37 -81t-38 -98t-25 -96.5t2 -77.5z" />
<glyph unicode="&#xc4;" horiz-adv-x="725" d="M193 1066q-13 9 -21.5 17.5t-12.5 18.5t-3 23t7 30q7 22 24.5 28t37 1.5t36.5 -16.5t23 -27q9 -23 3.5 -43t-20.5 -32t-35 -13t-39 13zM372 1068q-25 18 -34 36t4 52q7 22 24.5 28.5t37 2t36.5 -17t23 -27.5q9 -23 3.5 -42.5t-20.5 -31.5t-35 -13t-39 13zM504 373h-279 l-39 -20q-1 0 -8 -22l-17 -54l-19 -65l-15 -55q-1 -4 -4 -18.5t-6 -31t-6 -30.5t-4 -18q-7 -27 -17.5 -38.5t-40.5 -0.5q-11 3 -14 34.5t0.5 78t12.5 100.5t21.5 103t27.5 86t30 49l157 549q3 12 14.5 18t24 6t24 -6t15.5 -18l31 -123q19 -72 43.5 -148.5t55 -150 t66.5 -127.5q37 -14 44.5 -24.5t3 -23t-11 -29t3.5 -41.5l98 -255l2 -14q3 -15 2.5 -32.5t-5.5 -33t-19 -18.5l-39 39zM225 471q2 -5 9.5 -12.5t10.5 -7.5h176q4 0 11.5 7.5t8.5 12.5q1 3 1 12v17v18q0 8 -1 11q-3 10 -11 30l-18 45l-20 53l-20 53l-18 45l-11 29 q-2 5 -9.5 20t-10.5 20q-16 -33 -37 -81t-38 -98t-25 -96.5t2 -77.5z" />
<glyph unicode="&#xc5;" horiz-adv-x="725" d="M273 1055q-50 9 -72.5 24.5t-23.5 34t16 36.5t47.5 32.5t71 22t86.5 4.5q37 -2 61 -17.5t31.5 -37t-0.5 -44t-34.5 -39t-72 -22.5t-110.5 6zM273 1077q55 -16 96.5 -5t60.5 33t10.5 46.5t-54.5 34.5q-17 4 -40.5 0t-46 -13t-40.5 -22t-25 -26.5t1 -26t38 -21.5zM504 373 h-279l-39 -20q-1 0 -8 -22l-17 -54l-19 -65l-15 -55q-1 -4 -4 -18.5t-6 -31t-6 -30.5t-4 -18q-7 -27 -17.5 -38.5t-40.5 -0.5q-11 3 -14 34.5t0.5 78t12.5 100.5t21.5 103t27.5 86t30 49l157 549q3 12 14.5 18t24 6t24 -6t15.5 -18l31 -123q19 -72 43.5 -148.5t55 -150 t66.5 -127.5q37 -14 44.5 -24.5t3 -23t-11 -29t3.5 -41.5l98 -255l2 -14q3 -15 2.5 -32.5t-5.5 -33t-19 -18.5l-39 39zM225 471q2 -5 9.5 -12.5t10.5 -7.5h176q4 0 11.5 7.5t8.5 12.5q1 3 1 12v17v18q0 8 -1 11q-3 10 -11 30l-18 45l-20 53l-20 53l-18 45l-11 29 q-2 5 -9.5 20t-10.5 20q-16 -33 -37 -81t-38 -98t-25 -96.5t2 -77.5z" />
<glyph unicode="&#xc6;" horiz-adv-x="1214" d="M474 366h-234l-32 -20q-1 0 -7 -23l-14 -54l-16 -65l-13 -55q-1 -4 -3.5 -18.5t-5 -31.5t-5 -31t-2.5 -18q-6 -27 -15 -38.5t-34 -0.5q-9 3 -11.5 34.5t0.5 78.5t10.5 101t18 103.5t23 86.5t24.5 49l132 552q2 12 11.5 18t20 6t20.5 -6t13 -18l26 -124q16 -72 36.5 -149 t46 -151t55.5 -128q31 -14 37 -24.5t2.5 -23t-9 -29t2.5 -41.5l82 -257l2 -14q2 -15 2 -32.5t-4.5 -33t-15.5 -18.5l-33 39zM240 464q2 -5 8 -12.5t9 -7.5h147q4 0 10 7.5t7 12.5q1 3 1 12v17v18q0 9 -1 12l-9 30l-15 45l-17 53l-17 53l-14 45l-10 30l-8 20t-9 20 q-13 -33 -30.5 -81.5t-32 -98.5t-21 -97t1.5 -78zM584 39v686q-9 21 -15 37t-5.5 29.5t9.5 25.5t30 26q12 2 39 5l59 8l69 8l69 8q33 4 59 6.5t39 3.5q10 1 40.5 4.5t65 2t66 -11t43.5 -34.5q6 -13 -2 -23.5t-17 -15.5q-10 1 -35 1h-54h-53q-25 0 -35 -1q-15 -1 -48 -3.5 t-71.5 -7.5t-75.5 -12t-60 -16q-5 -2 -12 -9.5t-7 -10.5v-235h353v-39l-353 -59l-20 -20q-2 -2 -2.5 -29t-0.5 -64.5t0.5 -77t2.5 -64.5q2 -35 33.5 -53t78.5 -24t103.5 -3.5t110 7.5t98 10t66.5 4q21 -11 21 -29.5t-21 -29.5q-12 -2 -36 -5l-56 -7q-30 -4 -64.5 -8 t-65.5 -8l-54 -7q-25 -3 -37 -4q-4 0 -15 -0.5t-23.5 -0.5t-24 0.5t-16.5 0.5q-17 1 -44 4l-51 7q-25 3 -43 5.5t-19 3.5z" />
<glyph unicode="&#xc7;" horiz-adv-x="686" d="M166 20q-49 42 -78.5 84.5t-44 89.5t-17 100.5t2.5 117.5q3 39 14.5 96.5t32 119.5t51 121.5t71 101t91.5 58t113 -6.5q18 -7 34.5 -28.5t28.5 -48.5t18 -56t2 -51t-19 -32t-45 0q2 67 -8 102.5t-28 47.5t-42 4t-50 -29.5t-52.5 -52.5t-49 -64.5t-40 -66.5t-24.5 -58 q-12 -39 -22 -94.5t-12.5 -114t5.5 -114.5t31.5 -97.5t65.5 -62t109 -8.5q50 9 86.5 26t69 38.5t65 45.5t73.5 47q14 8 27.5 5t22.5 -13t12 -24t-4 -27q-13 -25 -47.5 -52.5t-80.5 -52t-99 -44t-103.5 -28t-92.5 -5t-67 25.5zM156 -368q-3 3 -4 11.5t-1 18t1 18t4 11.5 q108 -6 171 -1t92 17.5t29 31t-18 39t-49.5 41t-65 38.5t-64.5 31t-48 18l-9 110l68 10l5 -70q85 -31 144 -69.5t89 -78.5t29.5 -77t-35 -64.5t-104.5 -41.5t-179 -7q-5 0 -14 2l-18 4q-9 2 -15.5 4.5t-7.5 3.5z" />
<glyph unicode="&#xc8;" horiz-adv-x="676" d="M428 990l30 -50q-7 -14 -30 -12.5t-54.5 13.5t-67.5 32t-69 44t-59 50t-37.5 48.5t-4.5 39.5t41 25q20 -27 55 -56t73 -55t72 -47zM68 20q1 -1 19 -3.5t43 -5.5l52 -7q26 -3 43 -4q5 0 16.5 -0.5t24 -0.5t23.5 0.5t15 0.5q12 1 37 4l55 7q30 4 64.5 8t65.5 8l55 7 q24 3 36 5q21 11 21 29.5t-21 29.5q-22 1 -66.5 -4t-98 -10t-110 -7.5t-103.5 3.5t-78.5 24t-33.5 53q-2 25 -2.5 64.5t-0.5 77t0.5 64.5t2.5 29l20 20l353 59v39h-353v235q0 3 7 10.5t12 9.5q23 9 60 16t75.5 12t71.5 7.5t48 3.5q10 1 35 1h54h53q25 0 35 -1q9 5 17 15.5 t2 23.5q-12 25 -43.5 34.5t-66 11t-65 -2t-40.5 -4.5q-13 -1 -39 -3.5t-59 -6.5l-69 -8l-69 -8l-59 -8q-27 -3 -39 -5q-21 -14 -30 -26t-9.5 -25.5t5.5 -29.5t15 -37v-686z" />
<glyph unicode="&#xc9;" horiz-adv-x="676" d="M187 921l-58 -6q-10 12 0.5 32.5t34.5 44t57.5 48.5t69.5 45t70 33t59.5 14t38 -12.5t5.5 -47.5q-32 -8 -73 -28t-81 -43.5t-73 -45.5zM68 20q1 -1 19 -3.5t43 -5.5l52 -7q26 -3 43 -4q5 0 16.5 -0.5t24 -0.5t23.5 0.5t15 0.5q12 1 36 4l56 7q30 4 64.5 8t65.5 8l54 7 q25 3 37 5q21 11 21 29.5t-21 29.5q-22 1 -66.5 -4t-98 -10t-110 -7.5t-103.5 3.5t-78.5 24t-33.5 53q-2 25 -2.5 64.5t-0.5 77t0.5 64.5t2.5 29l20 20l353 59v39h-353v235q0 3 7 10.5t12 9.5q23 9 60 16t75.5 12t71.5 7.5t48 3.5q10 1 35 1h53h54q25 0 35 -1q9 5 17 15.5 t2 23.5q-12 25 -43.5 34.5t-66 11t-65 -2t-40.5 -4.5q-13 -1 -39 -3.5t-59 -6.5l-69 -8l-69 -8l-60 -8q-26 -3 -38 -5q-21 -14 -30 -26t-9.5 -25.5t5.5 -29.5t15 -37v-686z" />
<glyph unicode="&#xca;" horiz-adv-x="676" d="M84 922q6 9 21 26l32 39l37 46l39 45l33 37l21 25q5 7 14.5 16t18.5 16l16 13q7 6 7 5l15 -15l9 -13l21 -34l30 -48l33 -53l33 -51l26 -43q7 -11 4.5 -17.5t-27.5 -18.5l-160 180q-4 4 -20.5 -8t-38.5 -33.5t-47 -48.5l-46 -51l-35 -43t-14 -22l-36 22q-1 9 4.5 17 t9.5 12zM49 39v686q-9 21 -15 37t-5.5 29.5t9.5 25.5t30 26q12 2 39 5l59 8l69 8l69 8q33 4 59 6.5t39 3.5q10 1 40.5 4.5t65 2t66 -11t43.5 -34.5q6 -13 -2 -23.5t-17 -15.5q-10 1 -35 1h-53h-54q-25 0 -35 -1q-15 -1 -48 -3.5t-71.5 -7.5t-75.5 -12t-60 -16 q-5 -2 -12 -9.5t-7 -10.5v-235h353v-39l-353 -59l-20 -20q-2 -2 -2.5 -29t-0.5 -64.5t0.5 -77t2.5 -64.5q2 -35 33.5 -53t78.5 -24t103.5 -3.5t110 7.5t98 10t66.5 4q21 -11 21 -29.5t-21 -29.5q-12 -2 -36 -5l-55 -7q-31 -4 -65.5 -8t-64.5 -8l-55 -7q-25 -3 -37 -4 q-4 0 -15 -0.5t-23.5 -0.5t-24 0.5t-16.5 0.5q-17 1 -43 4l-52 7q-25 3 -43 5.5t-19 3.5z" />
<glyph unicode="&#xcb;" horiz-adv-x="676" d="M183 924q-13 9 -21.5 17.5t-12.5 18.5t-3 23t7 30q7 22 24.5 28t37 1.5t36.5 -16.5t23 -27q9 -23 3.5 -43t-20.5 -32t-35 -13t-39 13zM362 926q-25 18 -34 36t4 52q7 22 24.5 28.5t37 2t36.5 -17t23 -27.5q9 -23 3.5 -42.5t-20.5 -31.5t-35 -13t-39 13zM49 39v686 q-9 21 -15 37t-5.5 29.5t9.5 25.5t30 26q12 2 38 5l60 8l69 8l69 8q33 4 59 6.5t39 3.5q10 1 40.5 4.5t65 2t66 -11t43.5 -34.5q6 -13 -2 -23.5t-17 -15.5q-10 1 -35 1h-54h-53q-25 0 -35 -1q-15 -1 -48 -3.5t-71.5 -7.5t-75.5 -12t-60 -16q-5 -2 -12 -9.5t-7 -10.5v-235 h353v-39l-353 -59l-20 -20q-2 -2 -2.5 -29t-0.5 -64.5t0.5 -77t2.5 -64.5q2 -35 33.5 -53t78.5 -24t103.5 -3.5t110 7.5t98 10t66.5 4q21 -11 21 -29.5t-21 -29.5q-12 -2 -37 -5l-55 -7q-30 -4 -64.5 -8t-65.5 -8l-55 -7q-24 -3 -36 -4q-4 0 -15 -0.5t-23.5 -0.5t-24 0.5 t-16.5 0.5q-17 1 -43 4l-52 7q-25 3 -43 5.5t-19 3.5z" />
<glyph unicode="&#xcc;" horiz-adv-x="157" d="M193 1014l30 -50q-7 -14 -30 -12.5t-54.5 13.5t-67.5 32t-69 44t-59 50t-37.5 48.5t-4.5 39.5t41 25q20 -27 55 -56t73 -55t72 -47zM59 20q2 -4 9 -8.5t16 -8t18 -4.5t15 1v863q0 16 -12 27t-27 13t-27 -7t-12 -33v-745q0 -7 2.5 -21.5t5.5 -30t6.5 -29t5.5 -17.5z" />
<glyph unicode="&#xcd;" horiz-adv-x="157" d="M14 959l-58 -6q-10 12 0.5 32.5t34.5 44t57.5 48.5t69.5 45t70 33t59.5 14t38 -12.5t5.5 -47.5q-32 -8 -73 -28t-81 -43.5t-73 -45.5zM59 20q2 -4 9 -8.5t16 -8t18 -4.5t15 1v863q0 16 -12 27t-27 13t-27 -7t-12 -33v-745q0 -7 2.5 -21.5t5.5 -30t6.5 -29t5.5 -17.5z" />
<glyph unicode="&#xce;" horiz-adv-x="157" d="M-120 990q6 9 21 26l32 39l37 46l39 45l33 37l21 25q5 7 14.5 16t18.5 16l16 13q7 6 7 5l15 -15l9 -13l21 -34l30 -48l33 -53l33 -51l26 -43q7 -11 4.5 -17.5t-27.5 -18.5l-160 180q-4 5 -20.5 -7.5t-38.5 -34t-47 -48.5l-46 -51l-35 -43t-14 -22l-36 22q-1 9 4.5 17 t9.5 12zM59 20q-2 4 -5.5 17.5t-6.5 29t-5.5 30t-2.5 21.5v745q0 24 12 33t27 7t27 -13t12 -27v-863q-6 -2 -15 -1t-18 4.5t-16 8t-9 8.5z" />
<glyph unicode="&#xcf;" horiz-adv-x="157" d="M-49 929q-13 9 -21.5 17.5t-12.5 18.5t-3 23t7 30q7 22 24.5 28t37 1.5t36.5 -16.5t23 -27q9 -23 3.5 -43t-20.5 -32t-35 -13t-39 13zM130 931q-25 18 -34 36t4 52q7 22 24.5 28.5t37 2t36.5 -17t23 -27.5q9 -23 3.5 -42.5t-20.5 -31.5t-35 -13t-39 13zM59 20 q-2 4 -5.5 17.5t-6.5 29t-5.5 30t-2.5 21.5v745q0 24 12 33t27 7t27 -13t12 -27v-863q-6 -2 -15 -1t-18 4.5t-16 8t-9 8.5z" />
<glyph unicode="&#xd0;" horiz-adv-x="775" d="M-44 401q-3 2 -10.5 9t-9.5 10q5 12 19 19.5t30 11.5t30 5.5t19 2.5q13 2 29 3.5t35 3.5v259q-5 2 -15.5 9.5t-21.5 17t-20 18.5t-12 14q-12 24 8.5 47t62.5 39.5t101 23.5t124 -1t131 -34t122.5 -76t98 -126.5t58.5 -185.5q12 -77 -9 -149.5t-64.5 -133.5t-106 -107.5 t-134 -71t-147.5 -23.5t-147 34q-3 1 -8 6.5t-9.5 11.5t-8 12t-3.5 9v317q-45 -1 -82 4t-60 21zM186 118q7 -27 41 -37.5t81 -5.5t101.5 26t103 57.5t85 89.5t48.5 121.5t-6.5 152.5t-81.5 184q-19 31 -53.5 58.5t-75.5 46t-83.5 24t-77 -7t-57.5 -46.5t-25 -95 q-1 -26 -1.5 -83.5t-0.5 -127.5q27 3 54 5l54 5l47 5q22 2 38 4q10 -5 21.5 -18t18 -28.5t3 -30t-23.5 -21.5q-38 2 -95 -4t-117 -11v-83q0 -41 0.5 -76t1 -62t0.5 -42z" />
<glyph unicode="&#xd1;" horiz-adv-x="745" d="M340 765q-21 11 -32 34t-20.5 46.5t-20.5 43t-32 24.5q-10 3 -33.5 -7l-51.5 -23l-56 -28q-28 -14 -48 -20t-27.5 -1t5.5 30q9 12 34.5 37.5t57 49.5t64 39t55.5 6q25 -17 45 -45t37 -56l30 -51q14 -23 28 -30q33 -12 66.5 -10.5t63.5 13.5t55.5 32.5t43.5 47.5 q25 8 36 1.5t10.5 -21t-12.5 -35t-32.5 -40.5t-49 -36.5t-62.5 -24t-73 -3t-81 26.5zM39 20q0 6 -0.5 23t-0.5 35.5t0.5 35.5t0.5 23q1 24 2.5 64.5t3.5 87.5l4 96q2 49 4 91l3 72q2 30 3 40q6 90 18.5 127.5t29.5 38.5t38 -24.5t43 -62.5l44 -75q22 -39 42 -63l50 -55 l63 -68l68 -69l62 -61l48 -43.5t23 -16.5h20v529q0 4 7 11.5t12 8.5q3 1 11 1h18h18q9 0 12 -1q1 -15 2.5 -45.5t4 -69.5t4.5 -81l4 -81q2 -39 3 -70t2 -45q1 -33 3.5 -73t1.5 -82t-6 -83t-19 -76q-2 -3 -9.5 -10.5t-10.5 -9.5l-509 510q-3 -5 -5 -35l-5 -77l-7 -102 q-3 -56 -8.5 -111t-13.5 -103.5t-19 -79.5t-26 -39t-34 18z" />
<glyph unicode="&#xd2;" horiz-adv-x="686" d="M421 813l30 -50q-7 -14 -30 -12.5t-54.5 13.5t-67.5 32t-69 44t-59 50t-37.5 48.5t-4.5 39.5t41 25q20 -27 55 -56t73 -55t72 -47zM147 59q57 -38 126.5 -49t136.5 1t124 45t90 82.5t35 114t-42 139.5l-62 103q-25 41 -54 70t-69.5 51.5t-108.5 50.5 q-60 -16 -114.5 -55.5t-96 -92.5t-66 -115t-24 -124.5t29.5 -120t95 -100.5zM186 118q-46 34 -65 83.5t-16.5 102.5t23.5 104.5t55.5 89t79 56t94.5 6t101.5 -61t99.5 -145.5q26 -52 18.5 -97.5t-36.5 -81t-74.5 -59t-95.5 -32t-99 -1t-85 35.5z" />
<glyph unicode="&#xd3;" horiz-adv-x="686" d="M199 734l-58 -6q-10 12 0.5 32.5t34.5 44t57.5 48.5t69.5 45t70 33t59.5 14t38 -12.5t5.5 -47.5q-32 -8 -73 -28t-81 -43.5t-73 -45.5zM147 59q57 -38 126.5 -49t136.5 1t124 45t90 82.5t35 114t-42 139.5l-62 103q-25 41 -54 70t-69.5 51.5t-108.5 50.5 q-60 -16 -114.5 -55.5t-96 -92.5t-66 -115t-24 -124.5t29.5 -120t95 -100.5zM186 118q-46 34 -65 83.5t-16.5 102.5t23.5 104.5t55.5 89t79 56t94.5 6t101.5 -61t99.5 -145.5q26 -52 18.5 -97.5t-36.5 -81t-74.5 -59t-95.5 -32t-99 -1t-85 35.5z" />
<glyph unicode="&#xd4;" horiz-adv-x="686" d="M110 688q6 9 21 26l32 39l37 46l39 45l33 37l21 25q5 7 14.5 16t18.5 16l16 13q7 6 7 5l15 -15l9 -13l21 -34l30 -48l33 -53l33 -51l26 -43q7 -11 4.5 -17.5t-27.5 -18.5l-160 180q-4 4 -20.5 -8t-38.5 -33.5t-47 -48.5l-46 -51l-35 -43t-14 -22l-36 22q-1 9 4.5 17 t9.5 12zM147 59q-66 43 -95 100.5t-29.5 120t24 124.5t66 115t96 92.5t114.5 55.5q68 -28 108.5 -50.5t69.5 -51.5t54 -69l62 -104q44 -75 42 -139.5t-35 -114t-90 -82.5t-124 -45t-136.5 -1t-126.5 49zM186 118q36 -28 85 -35.5t99 1t95.5 32t74.5 59t36.5 81t-18.5 97.5 q-48 97 -99.5 145.5t-101.5 61t-94.5 -6t-79 -56t-55.5 -89t-23.5 -104.5t16.5 -102.5t65 -83.5z" />
<glyph unicode="&#xd5;" horiz-adv-x="686" d="M368 731q-21 11 -32 34t-20.5 46.5t-20.5 43t-32 24.5q-10 2 -33.5 -7.5t-51.5 -22.5l-56 -28q-28 -14 -48 -20t-27.5 -1t5.5 30q9 12 34.5 37.5t57 49.5t64 39t55.5 6q25 -17 45 -45t37 -56l30 -51q14 -23 28 -30q33 -12 66.5 -10.5t63.5 13.5t55.5 32.5t43.5 47.5 q25 8 36 1.5t10.5 -21t-12.5 -35t-32.5 -40.5t-49 -36.5t-62.5 -24t-73 -3t-81 26.5zM147 59q-66 43 -95 100.5t-29.5 120t24 124.5t66 115t96 92.5t114.5 55.5q68 -28 108.5 -50.5t69.5 -51.5t54 -69l62 -104q44 -75 42 -139.5t-35 -114t-90 -82.5t-124 -45t-136.5 -1 t-126.5 49zM186 118q36 -28 85 -35.5t99 1t95.5 32t74.5 59t36.5 81t-18.5 97.5q-48 97 -99.5 145.5t-101.5 61t-94.5 -6t-79 -56t-55.5 -89t-23.5 -104.5t16.5 -102.5t65 -83.5z" />
<glyph unicode="&#xd6;" horiz-adv-x="686" d="M188 701q-13 9 -21.5 17.5t-12.5 18.5t-3 23t7 30q7 22 24.5 28t37 1.5t36.5 -16.5t23 -27q9 -23 3.5 -43t-20.5 -32t-35 -13t-39 13zM367 703q-25 18 -34 36t4 52q7 22 24.5 28.5t37 2t36.5 -17t23 -27.5q9 -23 3.5 -42.5t-20.5 -31.5t-35 -13t-39 13zM147 59 q-66 43 -95 100.5t-29.5 120t24 124.5t66 115t96 92.5t114.5 55.5q68 -28 108.5 -50.5t69.5 -51.5t54 -69l62 -104q44 -75 42 -139.5t-35 -114t-90 -82.5t-124 -45t-136.5 -1t-126.5 49zM186 118q36 -28 85 -35.5t99 1t95.5 32t74.5 59t36.5 81t-18.5 97.5 q-48 97 -99.5 145.5t-101.5 61t-94.5 -6t-79 -56t-55.5 -89t-23.5 -104.5t16.5 -102.5t65 -83.5z" />
<glyph unicode="&#xd8;" horiz-adv-x="686" d="M147 59q-66 43 -95 100.5t-29.5 120t24 124.5t66 115t96 92.5t114.5 55.5q68 -28 108.5 -50.5t69.5 -51.5t54 -69l62 -104q44 -75 42 -139.5t-35 -114t-90 -82.5t-124 -45t-136.5 -1t-126.5 49zM186 118q36 -28 85 -35.5t99 1t95.5 32t74.5 59t36.5 81t-18.5 97.5 q-48 97 -99.5 145.5t-101.5 61t-94.5 -6t-79 -56t-55.5 -89t-23.5 -104.5t16.5 -102.5t65 -83.5zM184 -84q-1 3 -1.5 11.5t-0.5 18t0.5 17.5t1.5 11l235 706l40 79q0 2 7.5 2t11.5 -2q13 -7 19 -19t7.5 -26t-0.5 -28t-6 -25l-216 -667q0 -1 -5.5 -14.5t-14 -30t-19 -32.5 t-20.5 -21q-11 -5 -23.5 2t-15.5 18z" />
<glyph unicode="&#xd9;" horiz-adv-x="657" d="M387 898l30 -50q-7 -14 -30 -12.5t-54.5 13.5t-67.5 32t-69 44t-59 50t-37.5 48.5t-4.5 39.5t41 25q20 -27 55 -56t73 -55t72 -47zM275 20q51 -26 93 -26t76 17t60.5 49t46.5 71t34 81.5t23 81.5q0 15 0.5 47.5t0.5 72.5v86v85q0 41 -0.5 73.5t-0.5 47.5q0 6 -2 22l-6 36 q-3 19 -6 36t-5 24q-2 8 -13.5 18t-25 16t-25.5 4t-15 -19q-5 -24 -2.5 -71.5t7.5 -109t9 -131.5t2 -138.5t-12 -130t-34 -106t-64 -66.5t-102 -12q-18 3 -36.5 16t-34.5 31t-28.5 37t-18.5 34q-24 65 -43 123.5t-32 117t-19 119.5t-4 130q-2 3 -9 10.5t-10 9.5 q-23 12 -36.5 -6.5t-17.5 -58t1 -95t18.5 -117.5t35 -125.5t50.5 -119.5t65.5 -99.5t79.5 -64.5z" />
<glyph unicode="&#xda;" horiz-adv-x="657" d="M170 840l-58 -6q-10 12 0.5 32.5t34.5 44t57.5 48.5t69.5 45t70 33t59.5 14t38 -12.5t5.5 -47.5q-32 -8 -73 -28t-81 -43.5t-73 -45.5zM275 20q51 -26 93 -26t76 17t60.5 49t46.5 71t34 81.5t23 81.5q0 15 0.5 47.5t0.5 72.5v86v85q0 41 -0.5 73.5t-0.5 47.5q0 6 -2 22 l-6 36q-3 19 -6 36t-5 24q-2 8 -13.5 18t-25 16t-25.5 4t-15 -19q-5 -24 -2.5 -71.5t7.5 -109t9 -131.5t2 -138.5t-12 -130t-34 -106t-64 -66.5t-102 -12q-18 3 -36.5 16t-34.5 31t-28.5 37t-18.5 34q-24 65 -43 123.5t-32 117t-19 119.5t-4 130q-2 3 -9 10.5t-10 9.5 q-23 12 -36.5 -6.5t-17.5 -58t1 -95t18.5 -117.5t35 -125.5t50.5 -119.5t65.5 -99.5t79.5 -64.5z" />
<glyph unicode="&#xdb;" horiz-adv-x="657" d="M79 869q6 9 21 26l32 39l37 46l39 45l33 37l21 25q5 7 14.5 16t18.5 16l16 13q7 6 7 5l15 -15l9 -13l21 -34l30 -48l33 -53l33 -51l26 -43q7 -11 4.5 -17.5t-27.5 -18.5l-160 180q-4 4 -20.5 -8t-38.5 -33.5t-47 -48.5l-46 -52q-21 -24 -35 -42t-14 -22l-36 22 q-1 9 4.5 17t9.5 12zM275 20q-43 21 -79.5 64.5t-65.5 99.5t-50.5 119.5t-35 125.5t-18.5 117.5t-1 95t17.5 58t36.5 6.5q3 -2 10 -9.5t9 -10.5q-2 -69 4 -130t19 -119.5t32 -117t43 -123.5q6 -15 18.5 -34t28.5 -37t34.5 -31t36.5 -16q62 -10 102 12t64 66.5t34 106t12 130 t-2 138.5t-9 131.5t-7.5 109t2.5 71.5q3 17 15 19t25.5 -4t25 -16t13.5 -18q2 -7 5 -24t6 -36l6 -36q2 -16 2 -22q0 -15 0.5 -47.5t0.5 -73.5v-85v-86q0 -40 -0.5 -72.5t-0.5 -47.5q-9 -39 -23 -81.5t-34 -81.5t-46.5 -71t-60.5 -49t-76 -17t-93 26z" />
<glyph unicode="&#xdc;" horiz-adv-x="657" d="M183 828q-13 9 -21.5 17.5t-12.5 18.5t-3 23t7 30q7 22 24.5 28t37 1.5t36.5 -16.5t23 -27q9 -23 3.5 -43t-20.5 -32t-35 -13t-39 13zM362 830q-25 18 -34 36t4 52q7 22 24.5 28.5t37 2t36.5 -17t23 -27.5q9 -23 3.5 -42.5t-20.5 -31.5t-35 -13t-39 13zM275 20 q-43 21 -79.5 64.5t-65.5 99.5t-50.5 119.5t-35 125.5t-18.5 117.5t-1 95t17.5 58t36.5 6.5q3 -2 10 -9.5t9 -10.5q-2 -69 4 -130t19 -119.5t32 -117t43 -123.5q6 -15 18.5 -34t28.5 -37t34.5 -31t36.5 -16q62 -10 102 12t64 66.5t34 106t12 130t-2 138.5t-9 131.5t-7.5 109 t2.5 71.5q3 17 15 19t25.5 -4t25 -16t13.5 -18q2 -7 5 -24t6 -36l6 -36q2 -16 2 -22q0 -15 0.5 -47.5t0.5 -73.5v-85v-86q0 -40 -0.5 -72.5t-0.5 -47.5q-9 -39 -23 -81.5t-34 -81.5t-46.5 -71t-60.5 -49t-76 -17t-93 26z" />
<glyph unicode="&#xdd;" horiz-adv-x="725" d="M373 20q-14 35 -11.5 72t13.5 74.5t27.5 76t30 77t20 76.5t-1.5 75l-39 40l-60 62l-69 73l-69 73l-58 63l-38 42q-2 2 -12 16l-22 34l-25 37l-19 30l-16 27q-9 17 -4 32q22 5 52 -13.5t63.5 -52t70.5 -76.5l72 -88l68 -84q34 -41 62 -68.5t49.5 -37t33.5 7.5 q20 30 30.5 73.5t17.5 93.5t13 102t16.5 98.5t29 84t49.5 58.5q28 -14 37 -32.5t3 -45.5l-236 -981q-2 -8 -11.5 -19t-21.5 -17.5t-24.5 -4t-20.5 21.5zM260 1119l-58 -6q-10 12 0.5 32.5t34.5 44t57.5 48.5t69.5 45t70 33t59.5 14t38 -12.5t5.5 -47.5q-32 -8 -73 -28 t-81 -43.5t-73 -45.5z" />
<glyph unicode="&#xe0;" d="M480 39q33 -26 63.5 -29.5t56 7t45.5 30t31.5 40t13 37.5t-9.5 21.5t-35 -8.5t-64 -51q-35 -10 -56.5 4t-35.5 43.5t-22 71.5l-17 88q-9 46 -19.5 92t-29 84.5t-46.5 65.5t-71 34q-46 8 -85.5 -8.5t-70.5 -49.5t-53 -77.5t-33.5 -93.5t-11.5 -98.5t12.5 -91t38 -71.5 t66.5 -40q42 -11 73.5 -2.5t56 29t45.5 49.5l40 61q19 10 34.5 -7t29.5 -43l27 -52q13 -26 27 -35zM107 137q-2 14 -2 41.5t3.5 61.5t10 72t18 73.5t27 64.5t36 45t46.5 16.5t58 -21.5q2 -8 8 -27t12 -41l12 -42l7 -27q4 -21 -7 -57t-31.5 -74t-47.5 -71.5t-55 -50.5 t-53 -11t-42 48zM368 677l30 -50q-7 -14 -30 -12.5t-54.5 13.5t-67.5 32t-69 44t-59 50t-37.5 48.5t-4.5 39.5t41 25q20 -27 55 -56t73 -55t72 -47z" />
<glyph unicode="&#xe1;" d="M480 39q33 -26 63.5 -29.5t56 7t45.5 30t31.5 40t13 37.5t-9.5 21.5t-35 -8.5t-64 -51q-35 -10 -56.5 4t-35.5 43.5t-22 71.5l-17 88q-9 46 -19.5 92t-29 84.5t-46.5 65.5t-71 34q-46 8 -85.5 -8.5t-70.5 -49.5t-53 -77.5t-33.5 -93.5t-11.5 -98.5t12.5 -91t38 -71.5 t66.5 -40q42 -11 73.5 -2.5t56 29t45.5 49.5l40 61q19 10 34.5 -7t29.5 -43l27 -52q13 -26 27 -35zM107 137q-2 14 -2 41.5t3.5 61.5t10 72t18 73.5t27 64.5t36 45t46.5 16.5t58 -21.5q2 -8 8 -27t12 -41l12 -42l7 -27q4 -21 -7 -57t-31.5 -74t-47.5 -71.5t-55 -50.5 t-53 -11t-42 48zM143 599l-58 -6q-10 12 0.5 32.5t34.5 44t57.5 48.5t69.5 45t70 33t59.5 14t38 -12.5t5.5 -47.5q-32 -8 -73 -28t-81 -43.5t-73 -45.5z" />
<glyph unicode="&#xe2;" horiz-adv-x="630" d="M483 39q-14 9 -27 35l-27 52q-14 26 -29.5 43t-34.5 7l-41 -60q-20 -30 -44.5 -50.5t-56 -29t-73.5 2.5q-41 10 -66.5 40t-38 71.5t-12.5 91t11.5 98.5t33.5 93.5t53 77.5t70.5 49.5t85.5 8.5q43 -7 71 -34t46.5 -65.5t29 -84.5t19.5 -92l17 -88q8 -42 22 -71.5 t35.5 -43.5t56.5 -4q40 38 64 51t35 8.5t9.5 -21.5t-13 -37.5t-31.5 -40t-45.5 -30t-56 -7t-63.5 29.5zM110 137q17 -42 42 -48t53 11t55 50.5t47.5 71.5t31.5 74t7 57q-2 8 -8 28l-11 41q-6 22 -12 41t-8 27q-32 22 -58 21.5t-46.5 -16.5t-36 -45t-27 -64.5t-18 -73.5 t-10 -72t-3.5 -61.5t2 -41.5zM70 653q6 9 20 27l32 39l38 45l38 45l33 38l22 24q5 7 14.5 16l18.5 17l16 13q7 5 7 4l15 -15l8 -13l22 -34l29 -47l34 -53l32 -52l27 -43q7 -11 4.5 -17.5t-27.5 -18.5l-160 180q-4 4 -20.5 -8t-38.5 -33.5t-47 -48.5l-46 -51l-35 -43t-14 -22 l-36 22q-1 9 4.5 17t9.5 12z" />
<glyph unicode="&#xe3;" horiz-adv-x="617" d="M477 39q-14 9 -27 35l-27 52q-14 26 -29.5 43t-34.5 7l-41 -60q-20 -30 -44.5 -50.5t-56 -29t-73.5 2.5q-41 10 -66.5 40t-38 71.5t-12.5 91t11.5 98.5t33.5 93.5t53 77.5t70.5 49.5t85.5 8.5q43 -7 71 -34t46.5 -65.5t29 -84.5t19.5 -92l17 -88q8 -42 22 -71.5 t35.5 -43.5t56.5 -4q40 38 64 51t35 8.5t9.5 -21.5t-13 -37.5t-31.5 -40t-45.5 -30t-56 -7t-63.5 29.5zM104 137q17 -42 42 -48t53 11t55 50.5t47.5 71.5t31.5 74t7 57q-2 8 -8 28l-11 41q-6 22 -12 41t-8 27q-32 22 -58 21.5t-46.5 -16.5t-36 -45t-27 -64.5t-18 -73.5 t-10 -72t-3.5 -61.5t2 -41.5zM294 636q-21 11 -32 34t-20.5 46.5t-20.5 43t-32 24.5q-10 2 -33.5 -7.5t-51.5 -22.5l-56 -28q-28 -14 -48 -20t-27.5 -1t5.5 30q9 12 34.5 37.5t57 49.5t64 39t55.5 6q25 -17 45 -45t36 -56l31 -51q14 -23 28 -30q33 -12 66.5 -10.5t63.5 13.5 t55.5 32.5t43.5 47.5q33 10 42 -3.5t-1.5 -38.5t-39 -53t-69 -46t-91 -19.5t-105.5 28.5z" />
<glyph unicode="&#xe4;" d="M480 39q-14 9 -27 35l-27 52q-14 26 -29.5 43t-34.5 7l-41 -60q-20 -30 -44.5 -50.5t-56 -29t-73.5 2.5q-41 10 -66.5 40t-38 71.5t-12.5 91t11.5 98.5t33.5 93.5t53 77.5t70.5 49.5t85.5 8.5q43 -7 71 -34t46.5 -65.5t29 -84.5t19.5 -92l17 -88q8 -42 22 -71.5 t35.5 -43.5t56.5 -4q40 38 64 51t35 8.5t9.5 -21.5t-13 -37.5t-31.5 -40t-45.5 -30t-56 -7t-63.5 29.5zM107 137q17 -42 42 -48t53 11t55 50.5t47.5 71.5t31.5 74t7 57q-2 8 -8 28l-11 41q-6 22 -12 41t-8 27q-32 22 -58 21.5t-46.5 -16.5t-36 -45t-27 -64.5t-18 -73.5 t-10 -72t-3.5 -61.5t2 -41.5zM108 641q-13 9 -21.5 17.5t-12.5 18.5t-3 23t7 30q7 22 24.5 28t37 1.5t36.5 -16.5t23 -27q9 -23 3.5 -43t-20.5 -32t-35 -13t-39 13zM287 643q-25 18 -34 36t4 52q7 22 24.5 28.5t37 2t36.5 -17t23 -27.5q9 -23 3.5 -42.5t-20.5 -31.5t-35 -13 t-39 13z" />
<glyph unicode="&#xe5;" d="M207 581q-49 9 -72 24.5t-24 34t16 36.5t47.5 32.5t71 22t86.5 4.5q33 -2 55 -14.5t32.5 -30.5t8 -38t-18.5 -37.5t-46 -29t-75 -12.5q40 -11 66 -39.5t43.5 -68t28.5 -85.5t20 -91.5t18.5 -86.5t24 -70t36.5 -42.5t56 -3.5q40 38 64 51t35 8.5t9.5 -21.5t-13 -37.5 t-31.5 -40t-45.5 -30t-56 -7t-63.5 29.5q-14 9 -27 35l-27 52q-14 26 -29.5 43t-34.5 7l-41 -60q-20 -30 -44.5 -50.5t-56 -29t-73.5 2.5q-38 9 -63.5 36t-39.5 65.5t-17 84t4 92.5t24 92t41.5 80.5t57.5 59.5t73 29q-5 1 -10 1t-10 2zM107 137q17 -42 42 -48t53 11t55 50.5 t47.5 71.5t31.5 74t7 57q-2 8 -8 28l-11 41q-6 22 -12 41t-8 27q-32 22 -58 21.5t-46.5 -16.5t-36 -45t-27 -64.5t-18 -73.5t-10 -72t-3.5 -61.5t2 -41.5zM207 603q55 -16 96.5 -5t60.5 33t10.5 46.5t-54.5 34.5q-17 4 -40.5 0t-46 -13t-40.5 -22t-25 -26.5t1 -26t38 -21.5z " />
<glyph unicode="&#xe6;" horiz-adv-x="938" d="M439 44q-29 -21 -51 -32.5t-32.5 -1.5t-6.5 46t28 111q-20 -31 -44.5 -62.5t-54 -54.5t-65 -33.5t-77.5 0.5q-54 14 -81 55.5t-31 98t13.5 120t52 120.5t84 100t110.5 58q27 7 47.5 -9.5t35.5 -48t25.5 -75t17.5 -91.5t11.5 -96t7.5 -89.5t5 -72t5 -43.5zM107 137 q19 -47 46 -58.5t55.5 1t56 44.5t47 71.5t29 81.5t2.5 76q-14 66 -32.5 98t-39.5 38.5t-43 -9.5t-42.5 -45.5t-37.5 -69t-28 -80.5t-15 -80t2 -68zM405 80q-2 2 -4 10l-6 16q-3 8 -5 16l-3 12q-7 43 -8 96.5t6 107t24.5 102.5t49 83.5t78 49.5t111.5 1q18 -4 40.5 -20 t43.5 -39.5t36.5 -50.5t20 -52t-5.5 -45.5t-41 -30.5q-13 -2 -45 -6.5t-67 -10.5l-68 -11l-44 -8q-3 -1 -11.5 -3.5t-17.5 -5.5t-17 -6t-11 -4q-2 -18 -2 -46.5t4 -60.5t13.5 -62t27 -50.5t43.5 -27.5t64 9l240 93h38q3 -6 -8 -22t-33.5 -35.5t-54 -40t-68.5 -36t-78.5 -23 t-83 -0.5t-82 30.5t-76.5 70.5zM498 446l-3 -10l-6 -17l-5 -17l-4 -11q77 -7 123 0t68 21t22.5 32t-12.5 34t-36 26.5t-49.5 9.5t-52.5 -16.5t-45 -51.5z" />
<glyph unicode="&#xe7;" horiz-adv-x="588" d="M166 20q-20 6 -40 20.5t-36 33t-27 40.5t-14 43q-13 93 -2.5 160t35 112t60 70t73.5 34.5t74.5 6t64 -16t41.5 -32t7 -40.5q-26 -6 -49.5 0t-46.5 12.5t-48 6.5t-53 -19q-44 -30 -72 -71t-39 -85t-3.5 -86t33.5 -73.5t70.5 -48t109.5 -9.5q33 4 64 24l64 42 q31 21 62.5 33t63.5 -1q12 -34 -7 -60.5t-55 -46.5t-84.5 -32.5t-95.5 -19t-88 -5.5t-62 8zM145 -376q-3 3 -4 11.5t-1 18t1 18t4 11.5q108 -6 171 -1t92 17.5t29 31t-18 39t-49.5 41t-65 38.5t-64.5 31t-48 18l-9 110l68 10l5 -70q85 -31 144 -69.5t89 -78.5t29.5 -77 t-35 -64.5t-104.5 -41.5t-179 -7q-5 0 -14 2l-18 4q-9 2 -15.5 4.5t-7.5 3.5z" />
<glyph unicode="&#xe8;" horiz-adv-x="518" d="M68 118q50 -67 108.5 -91t116 -20t110.5 27.5t93 52.5t61.5 55.5t17.5 35.5h-40l-251 -100q-40 -17 -67.5 -9.5t-45.5 29.5t-28 54.5t-14 66t-4 64.5t2 50q3 1 11.5 4.5t17.5 6.5l18 5l12 4q13 3 46 8l72 12l70 11l47 8q32 11 43 33t6 48.5t-21.5 55.5t-38 54t-45 42.5 t-42.5 21.5q-69 15 -117.5 -1t-81.5 -53t-51 -89.5t-25.5 -110t-6.5 -114.5t8 -103q1 -4 3.5 -13t5.5 -18l6 -17q2 -8 4 -10zM166 510q19 39 46.5 55.5t55 17t52 -10.5t38 -28.5t12.5 -36.5t-23.5 -34t-70.5 -22t-129 0q1 3 4 11l5 18l6 18q2 9 4 12zM384 752l30 -50 q-7 -14 -30 -12.5t-54.5 13.5t-67.5 32t-69 44t-59 50t-37.5 48.5t-4.5 39.5t41 25q20 -27 55 -56t73 -55t72 -47z" />
<glyph unicode="&#xe9;" horiz-adv-x="518" d="M68 118q50 -67 108.5 -91t116 -20t110.5 27.5t93 52.5t61.5 55.5t17.5 35.5h-40l-251 -100q-40 -17 -67.5 -9.5t-45.5 29.5t-28 54.5t-14 66t-4 64.5t2 50q3 1 11.5 4.5t17.5 6.5l18 5l12 4q13 3 46 8l72 12l70 11l47 8q32 11 43 33t6 48.5t-21.5 55.5t-38 54t-45 42.5 t-42.5 21.5q-69 15 -117.5 -1t-81.5 -53t-51 -89.5t-25.5 -110t-6.5 -114.5t8 -103q1 -4 3.5 -13t5.5 -18l6 -17q2 -8 4 -10zM166 510q19 39 46.5 55.5t55 17t52 -10.5t38 -28.5t12.5 -36.5t-23.5 -34t-70.5 -22t-129 0q1 3 4 11l5 18l6 18q2 9 4 12zM153 711l-58 -6 q-10 12 0.5 32.5t34.5 44t57.5 48.5t69.5 45t70 33t59.5 14t38 -12.5t5.5 -47.5q-32 -8 -73 -28t-81 -43.5t-73 -45.5z" />
<glyph unicode="&#xea;" horiz-adv-x="518" d="M68 118q-2 2 -5 10l-5 17q-3 9 -5.5 18t-3.5 13q-7 46 -8 103t6.5 114.5t25.5 110t51 89.5t81.5 53t117.5 1q19 -4 42.5 -21.5t45 -42.5t38 -54t21.5 -55.5t-6 -48.5t-43 -33l-47 -7l-71 -12l-71 -11q-33 -6 -46 -9q-3 -1 -12 -3l-18 -6q-9 -3 -17.5 -6.5t-11.5 -4.5 q-2 -19 -2 -50t4 -64.5t14 -66t28 -54.5t45.5 -29.5t67.5 9.5l251 100h40q4 -9 -17.5 -35.5t-61.5 -55.5t-93 -52.5t-110.5 -27.5t-116 20t-108.5 91zM166 510q-2 -3 -5 -11l-5 -18l-6 -18q-2 -9 -3 -12q81 -7 129 0t70.5 22t23.5 34t-12.5 36.5t-38 28.5t-52 10.5t-55 -17 t-46.5 -55.5zM70 653q6 9 20 27l32 39l38 45l38 45l33 38l22 24q5 7 14.5 16l18.5 17l16 13q7 5 7 4l15 -15l8 -13l22 -34l29 -47l34 -53l32 -52l27 -43q7 -11 4.5 -17.5t-27.5 -18.5l-160 180q-4 4 -20.5 -8t-38.5 -33.5t-47 -48.5l-46 -51l-35 -43t-14 -22l-36 22 q-1 9 4.5 17t9.5 12z" />
<glyph unicode="&#xeb;" horiz-adv-x="518" d="M68 118q-2 2 -5 10l-5 17q-3 9 -5.5 18t-3.5 13q-7 46 -8 103t6.5 114.5t25.5 110t51 89.5t81.5 53t117.5 1q19 -4 42.5 -21.5t45 -42.5t38 -54t21.5 -55.5t-6 -48.5t-43 -33l-47 -7l-71 -12l-71 -11q-33 -6 -46 -9q-3 -1 -12 -3l-18 -6q-9 -3 -17.5 -6.5t-11.5 -4.5 q-2 -19 -2 -50t4 -64.5t14 -66t28 -54.5t45.5 -29.5t67.5 9.5l251 100h40q4 -9 -17.5 -35.5t-61.5 -55.5t-93 -52.5t-110.5 -27.5t-116 20t-108.5 91zM166 510q-2 -3 -5 -11l-5 -18l-6 -18q-2 -9 -3 -12q81 -7 129 0t70.5 22t23.5 34t-12.5 36.5t-38 28.5t-52 10.5t-55 -17 t-46.5 -55.5zM105 726q-13 9 -21.5 17.5t-12.5 18.5t-3 23t7 30q7 22 24.5 28t37 1.5t36.5 -16.5t23 -27q9 -23 3.5 -43t-20.5 -32t-35 -13t-39 13zM284 728q-25 18 -34 36t4 52q7 22 24.5 28.5t37 2t36.5 -17t23 -27.5q9 -23 3.5 -42.5t-20.5 -31.5t-35 -13t-39 13z" />
<glyph unicode="&#xec;" horiz-adv-x="228" d="M63 39q0 -3 2.5 -8.5t5.5 -11.5l6 -12q3 -5 5 -7q9 1 20 6t20 13t14.5 18.5t4.5 21.5l-18 445q-2 18 -15 21.5t-27.5 -3t-26 -22t-9.5 -35.5q1 -10 3 -45l3 -81q2 -46 4 -97.5t3 -95.5l3 -74q1 -30 2 -33zM231 666l30 -50q-7 -14 -30 -12.5t-54.5 13.5t-67.5 32t-69 44 t-59 50t-37.5 48.5t-4.5 39.5t41 25q20 -27 55 -56t73 -55t72 -47z" />
<glyph unicode="&#xed;" horiz-adv-x="171" d="M63 39q0 -3 2.5 -8.5t5.5 -11.5l6 -12q3 -5 5 -7q9 1 20 6t20 13t14.5 18.5t4.5 21.5l-18 445q-2 18 -15 21.5t-27.5 -3t-26 -22t-9.5 -35.5q1 -10 3 -45l3 -81q2 -46 4 -97.5t3 -95.5l3 -74q1 -30 2 -33zM0 629l-58 -6q-10 12 0.5 32.5t34.5 44t57.5 48.5t69.5 45t70 33 t59.5 14t38 -12.5t5.5 -47.5q-32 -8 -73 -28t-81 -43.5t-73 -45.5z" />
<glyph unicode="&#xee;" horiz-adv-x="171" d="M63 39q-1 3 -2 33l-3 74q-1 44 -3 95.5t-4 97.5l-4 81q-1 35 -2 45q-2 20 9.5 35.5t26 22t27.5 3t15 -21.5l18 -445q1 -11 -4.5 -21.5t-14.5 -18.5t-20 -13t-20 -6q-2 2 -5 8l-6 11q-3 6 -5.5 11.5t-2.5 8.5zM-124 654q6 9 20 27l32 39l38 45l38 45l33 38l22 24 q5 7 14.5 16l18.5 17l16 13q7 5 7 4l15 -15l8 -13l22 -34l29 -47l34 -53l32 -52l27 -43q7 -11 4.5 -17.5t-27.5 -18.5l-160 180q-4 4 -20.5 -8t-38.5 -33.5t-47 -48.5l-46 -51l-35 -43t-14 -22l-36 22q-1 9 4.5 17t9.5 12z" />
<glyph unicode="&#xef;" horiz-adv-x="252" d="M99 39q0 3 -1.5 33t-3 74t-3.5 95.5t-4 97.5l-4 81q-1 35 -2 45q-2 20 9.5 35.5t26 22t27.5 3t15 -21.5l18 -445q1 -11 -4.5 -21.5t-14.5 -18.5t-20 -13t-20 -6q-2 2 -5 8l-6 11q-3 6 -5.5 11.5t-2.5 8.5zM44 620q-10 9 -16.5 17t-9.5 18t-2.5 23t5.5 30q6 21 19 27 t27.5 2t27 -16t17.5 -27q7 -23 2.5 -42.5t-15.5 -31.5t-26 -13t-29 13zM177 622q-18 17 -25 35t3 52q5 22 18 28t27.5 1.5t27 -16.5t17.5 -27q7 -23 2.5 -42.5t-15.5 -31t-26 -12.5t-29 13z" />
<glyph unicode="&#xf1;" d="M294 636q-21 11 -32 34t-20.5 46.5t-20.5 43t-32 24.5q-10 2 -33.5 -7.5t-51.5 -22.5l-56 -28q-28 -14 -48 -20t-27.5 -1t5.5 30q9 12 34.5 37.5t57 49.5t64 39t55.5 6q25 -17 45 -45t37 -56l30 -51q14 -23 28 -30q33 -12 66.5 -10.5t63.5 13.5t55.5 32.5t43.5 47.5 q33 10 42 -3.5t-1.5 -38.5t-39 -53t-69 -46t-91 -19.5t-105.5 28.5zM519 20q-3 48 -9 106t-16 115.5t-24 108.5t-33 86.5t-43.5 49.5t-55.5 -3.5t-68.5 -72t-83.5 -155.5q-5 -12 -16 -42l-25 -64q-13 -35 -23.5 -66t-14.5 -44q-8 -19 -20 -21t-24 4t-22 17.5t-12 19.5 q-5 108 -1 216.5t21 214.5q11 22 22 24t22 -7t20.5 -26.5t17 -35.5t12 -33t4.5 -20q22 18 41 46l38 55q19 27 42 49t55 27q50 8 88 -5t66 -41t47 -68.5t31.5 -87t18.5 -96t8 -96t0.5 -87t-4.5 -68.5q-11 -21 -29.5 -21t-29.5 21z" />
<glyph unicode="&#xf2;" horiz-adv-x="559" d="M368 677l30 -50q-7 -14 -30 -12.5t-54.5 13.5t-67.5 32t-69 44t-59 50t-37.5 48.5t-4.5 39.5t41 25q20 -27 55 -56t73 -55t72 -47zM166 20q77 -31 136 -26t100.5 34.5t67 78t36 104t5.5 113t-23.5 105.5t-50 81t-75.5 39q-53 7 -102.5 -6.5t-91 -42t-74 -69t-52 -86.5 t-24 -93.5t9 -91.5t47 -80.5t91.5 -59.5zM166 98q-46 31 -58.5 74.5t-1.5 89.5t39 89.5t63 74.5t71.5 45t63.5 0q48 -24 69 -71.5t20.5 -101.5t-21 -106.5t-56 -86t-84 -39.5t-105.5 32z" />
<glyph unicode="&#xf3;" horiz-adv-x="559" d="M143 599l-58 -6q-10 12 0.5 32.5t34.5 44t57.5 48.5t69.5 45t70 33t59.5 14t38 -12.5t5.5 -47.5q-32 -8 -73 -28t-81 -43.5t-73 -45.5zM166 20q77 -31 136 -26t100.5 34.5t67 78t36 104t5.5 113t-23.5 105.5t-50 81t-75.5 39q-53 7 -102.5 -6.5t-91 -42t-74 -69 t-52 -86.5t-24 -93.5t9 -91.5t47 -80.5t91.5 -59.5zM166 98q-46 31 -58.5 74.5t-1.5 89.5t39 89.5t63 74.5t71.5 45t63.5 0q48 -24 69 -71.5t20.5 -101.5t-21 -106.5t-56 -86t-84 -39.5t-105.5 32z" />
<glyph unicode="&#xf4;" horiz-adv-x="559" d="M70 653q6 9 21 26l32 39l37 46l39 45l33 37l21 25q5 7 14.5 16t18.5 16l16 13q7 6 7 5l15 -15l9 -13l21 -34l30 -48l33 -53l33 -51l26 -43q7 -11 4.5 -17.5t-27.5 -18.5l-160 180q-4 4 -20.5 -8t-38.5 -33.5t-47 -48.5l-46 -52q-21 -24 -35 -42t-14 -22l-36 22 q-1 9 4.5 17t9.5 12zM166 20q-58 23 -91.5 59.5t-47 80.5t-9 91.5t24 93.5t52 86.5t74 69t91 42t102.5 6.5q44 -6 75.5 -39t50 -81t23.5 -105.5t-5.5 -113t-36 -104t-67 -78t-100.5 -34.5t-136 26zM166 98q57 -38 105.5 -32t84 39.5t56 86t21 106.5t-20.5 101.5t-69 71.5 q-27 14 -63.5 0t-71.5 -45t-63 -74.5t-39 -89.5t1.5 -89.5t58.5 -74.5z" />
<glyph unicode="&#xf5;" horiz-adv-x="559" d="M287 621q-18 10 -27 30.5t-17 41.5t-17 38t-27 22q-9 2 -28.5 -6.5t-42.5 -20.5l-47 -24q-23 -13 -39.5 -18.5t-23 -1t4.5 26.5q8 11 29 33.5t47.5 44t53.5 35t46 5.5q21 -15 37.5 -40t29.5 -50l26 -45q12 -21 24 -27q27 -11 55 -9.5t53 11.5t46 28.5t36 42.5 q28 9 35.5 -3t-1.5 -34t-32.5 -47t-57 -41t-75.5 -17.5t-88 25.5zM166 20q-58 23 -91.5 59.5t-47 80.5t-9 91.5t24 93.5t52 86.5t74 69t91 42t102.5 6.5q44 -6 75.5 -39t50 -81t23.5 -105.5t-5.5 -113t-36 -104t-67 -78t-100.5 -34.5t-136 26zM166 98q57 -38 105.5 -32 t84 39.5t56 86t21 106.5t-20.5 101.5t-69 71.5q-27 14 -63.5 0t-71.5 -45t-63 -74.5t-39 -89.5t1.5 -89.5t58.5 -74.5z" />
<glyph unicode="&#xf6;" horiz-adv-x="559" d="M108 641q-13 9 -21.5 17.5t-12.5 18.5t-3 23t7 30q7 22 24.5 28t37 1.5t36.5 -16.5t23 -27q9 -23 3.5 -43t-20.5 -32t-35 -13t-39 13zM287 643q-25 18 -34 36t4 52q7 22 24.5 28.5t37 2t36.5 -17t23 -27.5q9 -23 3.5 -42.5t-20.5 -31.5t-35 -13t-39 13zM166 20 q-58 23 -91.5 59.5t-47 80.5t-9 91.5t24 93.5t52 86.5t74 69t91 42t102.5 6.5q44 -6 75.5 -39t50 -81t23.5 -105.5t-5.5 -113t-36 -104t-67 -78t-100.5 -34.5t-136 26zM166 98q57 -38 105.5 -32t84 39.5t56 86t21 106.5t-20.5 101.5t-69 71.5q-27 14 -63.5 0t-71.5 -45 t-63 -74.5t-39 -89.5t1.5 -89.5t58.5 -74.5z" />
<glyph unicode="&#xf8;" horiz-adv-x="559" d="M170 132q-58 23 -91.5 59.5t-47 80.5t-9 91.5t24 93.5t52 86.5t74 69t91 42t102.5 6.5q44 -6 75.5 -39t50 -81t23.5 -105.5t-5.5 -113t-36 -104t-67 -78t-100.5 -34.5t-136 26zM170 210q57 -38 105.5 -32t84 39.5t56 86t21 106.5t-20.5 101.5t-69 71.5q-27 14 -63.5 0 t-71.5 -45t-63 -74.5t-39 -89.5t1.5 -89.5t58.5 -74.5zM117 20q-1 3 -1.5 11.5t-0.5 18t0.5 17.5t1.5 11l235 706l40 79q0 2 7.5 2t11.5 -2q13 -7 19 -19t7.5 -26t-0.5 -28t-6 -25l-216 -667q0 -1 -5.5 -14.5t-14 -30t-19 -32.5t-20.5 -21q-11 -5 -23.5 2t-15.5 18z" />
<glyph unicode="&#xf9;" horiz-adv-x="592" d="M368 677l30 -50q-7 -14 -30 -12.5t-54.5 13.5t-67.5 32t-69 44t-59 50t-37.5 48.5t-4.5 39.5t41 25q20 -27 55 -56t73 -55t72 -47zM539 20q3 -1 17 -5t32 -8t37.5 -6t33.5 0.5t20 11.5t-3 26q-9 19 -27.5 30.5t-40.5 21.5l-46 22q-24 12 -45 29.5t-36.5 44.5t-20.5 68 q-2 14 -5 50.5l-6 76.5l-5 77q-3 37 -3 51l-39 39l-20 -20l-7 -35l-11 -53q-6 -28 -12 -53t-9 -35q-8 -26 -27.5 -62.5t-45 -70t-53 -58.5t-51 -27t-40 24.5t-19.5 95.5q-1 12 -1 36.5t-0.5 55.5t-0.5 65t0.5 65t0.5 55.5t1 36.5q-10 20 -29 20t-29 -20q-8 -48 -12 -105.5 t-2.5 -116.5t9.5 -114t24.5 -96.5t43 -66t64.5 -21.5t89 37.5t117 109.5l31 -52q15 -26 33.5 -50t41 -43.5t51.5 -30.5z" />
<glyph unicode="&#xfa;" horiz-adv-x="558" d="M139 636l-58 -6q-10 12 0.5 32.5t34.5 44t57.5 48.5t69.5 45t70 33t59.5 14t38 -12.5t5.5 -47.5q-32 -8 -73 -28t-81 -43.5t-73 -45.5zM539 20q3 -1 17 -5t32 -8t37.5 -6t33.5 0.5t20 11.5t-3 26q-9 19 -27.5 30.5t-40.5 21.5l-46 22q-24 12 -45 29.5t-36.5 44.5 t-20.5 68q-2 14 -5 50.5l-6 76.5l-5 77q-3 37 -3 51l-39 39l-20 -20l-7 -35l-11 -53q-6 -28 -12 -53t-9 -35q-8 -26 -27.5 -62.5t-45 -70t-53 -58.5t-51 -27t-40 24.5t-19.5 95.5q-1 12 -1 36.5t-0.5 55.5t-0.5 65t0.5 65t0.5 55.5t1 36.5q-10 20 -29 20t-29 -20 q-8 -48 -12 -105.5t-2.5 -116.5t9.5 -114t24.5 -96.5t43 -66t64.5 -21.5t89 37.5t117 109.5l31 -52q15 -26 33.5 -50t41 -43.5t51.5 -30.5z" />
<glyph unicode="&#xfb;" horiz-adv-x="574" d="M70 653q6 9 21 26l32 39l37 46l39 45l33 37l21 25q5 7 14.5 16t18.5 16l16 13q7 6 7 5l15 -15l9 -13l21 -34l30 -48l33 -53l33 -51l26 -43q7 -11 4.5 -17.5t-27.5 -18.5l-160 180q-4 4 -20.5 -8t-38.5 -33.5t-47 -48.5l-46 -52q-21 -24 -35 -42t-14 -22l-36 22 q-1 9 4.5 17t9.5 12zM539 20q-29 11 -51.5 30.5t-41 43.5t-33.5 51l-31 51q-66 -75 -117 -109.5t-89 -37.5t-64.5 21.5t-43 66t-24.5 96.5t-9.5 114t2.5 116.5t12 105.5q10 20 29 20t29 -20q-1 -12 -1 -36.5t-0.5 -55.5t-0.5 -65t0.5 -65t0.5 -55.5t1 -36.5 q3 -69 19.5 -95.5t40 -24.5t51 27t53 58.5t45 70t27.5 62.5q3 10 9 35t12 53l11 53l7 35l20 20l39 -39q0 -14 3 -51l5 -77l6 -76.5t5 -50.5q5 -41 20.5 -68t36.5 -44.5t45 -29.5l46 -22q22 -10 40.5 -21.5t27.5 -30.5q9 -17 3 -26t-20 -11.5t-33.5 -0.5t-37.5 6t-32 8t-17 5 z" />
<glyph unicode="&#xfc;" horiz-adv-x="597" d="M108 641q-13 9 -21.5 17.5t-12.5 18.5t-3 23t7 30q7 22 24.5 28t37 1.5t36.5 -16.5t23 -27q9 -23 3.5 -43t-20.5 -32t-35 -13t-39 13zM287 643q-25 18 -34 36t4 52q7 22 24.5 28.5t37 2t36.5 -17t23 -27.5q9 -23 3.5 -42.5t-20.5 -31.5t-35 -13t-39 13zM539 20 q-29 11 -51.5 30.5t-41 43.5t-34.5 51l-30 51q-66 -75 -117 -109.5t-89 -37.5t-64.5 21.5t-43 66t-24.5 96.5t-9.5 114t2.5 116.5t12 105.5q10 20 29 20t29 -20q-1 -12 -1 -36.5t-0.5 -55.5t-0.5 -65t0.5 -65t0.5 -55.5t1 -36.5q3 -69 19.5 -95.5t40 -24.5t51 27t53 58.5 t45 70t27.5 62.5q3 10 9 35t12 53l11 53l7 35l20 20l39 -39q0 -14 3 -51l5 -77l6 -76.5t5 -50.5q5 -41 20.5 -68t36.5 -44.5t45 -29.5l46 -22q22 -10 40.5 -21.5t27.5 -30.5q9 -17 3 -26t-20 -11.5t-33.5 -0.5t-37.5 6t-32 8t-17 5z" />
<glyph unicode="&#xfd;" horiz-adv-x="588" d="M295 -421q-16 31 -14.5 67.5t11.5 75.5t25 79.5t26.5 80.5t16 77.5t-6.5 70.5q-10 30 -39 64t-66 70l-77 72q-40 38 -73.5 75.5t-55.5 75t-22 74.5q0 4 4.5 11t10.5 13t12.5 10.5t11.5 4.5q14 -10 40 -46l58 -80l67 -90q36 -45 68.5 -76.5t59 -41t41.5 19.5q2 11 8 34 l13 52l16 62l17 60l15 53l9 34q7 25 22.5 34.5t29.5 5.5t22.5 -20t3.5 -40q-1 -8 -7 -33l-14 -60l-18 -74l-18 -72l-14 -60q-6 -26 -7 -34q-5 -26 -2 -50t3.5 -46.5t-7.5 -42.5t-33 -38l-59 -372q-2 -14 -13.5 -18t-25 -2t-25 8t-14.5 12zM196 637l-58 -6q-10 12 0.5 32.5 t34.5 44t57.5 48.5t69.5 45t70 33t59.5 14t38 -12.5t5.5 -47.5q-32 -8 -73 -28t-81 -43.5t-73 -45.5z" />
<glyph unicode="&#xff;" horiz-adv-x="588" d="M295 -421q-16 31 -14.5 67.5t11.5 75.5t25 79.5t26.5 80.5t16 77.5t-6.5 70.5q-10 30 -39 64t-66 70l-77 72q-40 38 -73.5 75.5t-55.5 75t-22 74.5q0 4 4.5 11t10.5 13t12.5 10.5t11.5 4.5q14 -10 40 -46l58 -80l67 -90q36 -45 68.5 -76.5t59 -41t41.5 19.5q2 11 8 34 l13 52l16 62l17 60l15 53l9 34q7 25 22.5 34.5t29.5 5.5t22.5 -20t3.5 -40q-1 -8 -7 -33l-14 -60l-18 -74l-18 -72l-14 -60q-6 -26 -7 -34q-5 -26 -2 -50t3.5 -46.5t-7.5 -42.5t-33 -38l-59 -372q-2 -14 -13.5 -18t-25 -2t-25 8t-14.5 12zM171 595q-13 9 -21.5 17.5 t-12.5 18.5t-3 23t7 30q7 22 24.5 28t37 1.5t36.5 -16.5t23 -27q9 -23 3.5 -43t-20.5 -32t-35 -13t-39 13zM350 597q-25 18 -34 36t4 52q7 22 24.5 28.5t37 2t36.5 -17t23 -27.5q9 -23 3.5 -42.5t-20.5 -31.5t-35 -13t-39 13z" />
<glyph unicode="&#x152;" horiz-adv-x="1218" d="M147 59q-66 43 -95 100.5t-29.5 120t24 124.5t66 115t96 92.5t114.5 55.5q68 -28 108.5 -50.5t69.5 -51.5t54 -69l62 -104q44 -75 42 -139.5t-35 -114t-90 -82.5t-124 -45t-136.5 -1t-126.5 49zM186 118q36 -28 85 -35.5t99 1t95.5 32t74.5 59t36.5 81t-18.5 97.5 q-48 97 -99.5 145.5t-101.5 61t-94.5 -6t-79 -56t-55.5 -89t-23.5 -104.5t16.5 -102.5t65 -83.5zM587 19v686q-9 21 -15 37t-5.5 29.5t9.5 25.5t30 26q12 2 38 5l60 8l69 8l69 8q33 4 59 6.5t39 3.5q10 1 40.5 4.5t65 2t66 -11t43.5 -34.5q6 -13 -2 -23.5t-17 -15.5 q-10 1 -35 1h-53h-54q-25 0 -35 -1q-15 -1 -48 -3.5t-71.5 -7.5t-75.5 -12t-60 -16q-5 -2 -12 -9.5t-7 -10.5v-235h353v-39l-353 -59l-20 -20q-2 -2 -2.5 -29t-0.5 -64.5t0.5 -77t2.5 -64.5q2 -35 33.5 -53t78.5 -24t103.5 -3.5t110 7.5t98 10t66.5 4q21 -11 21 -29.5 t-21 -29.5q-12 -2 -37 -5l-54 -7q-31 -4 -65.5 -8t-64.5 -8l-56 -7q-24 -3 -36 -4q-4 0 -15 -0.5t-23.5 -0.5t-24 0.5t-16.5 0.5q-17 1 -43 4l-52 7q-25 3 -43 5.5t-19 3.5z" />
<glyph unicode="&#x153;" horiz-adv-x="978" d="M166 20q-58 23 -91.5 59.5t-47 80.5t-9 91.5t24 93.5t52 86.5t74 69t91 42t102.5 6.5q44 -6 75.5 -39t50 -81t23.5 -105.5t-5.5 -113t-36 -104t-67 -78t-100.5 -34.5t-136 26zM166 98q57 -38 105.5 -32t84 39.5t56 86t21 106.5t-20.5 101.5t-69 71.5q-27 14 -63.5 0 t-71.5 -45t-63 -74.5t-39 -89.5t1.5 -89.5t58.5 -74.5zM458 81q-2 2 -4 10l-6 17q-3 9 -5.5 18t-3.5 13q-7 46 -8 103t6.5 114.5t25.5 110t51 89.5t81.5 53t117.5 1q19 -4 42.5 -21.5t45 -42.5t38 -54t21.5 -55.5t-6 -48.5t-43 -33l-47 -7l-70 -12l-72 -12q-33 -5 -46 -8 l-12 -4l-18 -5q-9 -3 -17.5 -6.5t-11.5 -4.5q-2 -19 -2 -50t4 -64.5t14 -66t28 -54.5t45.5 -29.5t67.5 9.5l251 100h40q4 -9 -17.5 -35.5t-61.5 -55.5t-93 -52.5t-110.5 -27.5t-116 20t-108.5 91zM556 473q-2 -3 -4 -11l-6 -18l-6 -18q-2 -9 -3 -12q81 -7 129 0t70.5 22 t23.5 34t-12.5 36.5t-38 28.5t-52 10.5t-55 -17t-46.5 -55.5z" />
<glyph unicode="&#x178;" horiz-adv-x="725" d="M373 20q-14 35 -11.5 72t13.5 74.5t27.5 76t30 77t20 76.5t-1.5 75l-39 40l-60 62l-69 73l-69 73l-58 63l-38 42q-2 2 -12 16l-22 34l-25 37l-19 30l-16 27q-9 17 -4 32q22 5 52 -13.5t63.5 -52t70.5 -76.5l72 -88l68 -84q34 -41 62 -68.5t49.5 -37t33.5 7.5 q20 30 30.5 73.5t17.5 93.5t13 102t16.5 98.5t29 84t49.5 58.5q28 -14 37 -32.5t3 -45.5l-236 -981q-2 -8 -11.5 -19t-21.5 -17.5t-24.5 -4t-20.5 21.5zM238 1031q-13 9 -21.5 17.5t-12.5 18.5t-3 23t7 30q7 22 24.5 28t37 1.5t36.5 -16.5t23 -27q9 -23 3.5 -43t-20.5 -32 t-35 -13t-39 13zM417 1033q-25 18 -34 36t4 52q7 22 24.5 28.5t37 2t36.5 -17t23 -27.5q9 -23 3.5 -42.5t-20.5 -31.5t-35 -13t-39 13z" />
<glyph unicode="&#x2c6;" horiz-adv-x="431" d="M334 612q-4 6 -16 29l-24 49l-24 50l-14 29q-2 3 -9.5 10t-10.5 9q-27 -18 -44 -43t-33 -52t-34 -53.5t-46 -47.5l-39 39l157 295q10 19 25 20t29.5 -8.5t26.5 -24.5t17 -27l118 -274q3 -7 3 -16t-2 -17.5t-7 -15.5t-14 -10q-4 3 -13 11t-18 17t-17 18t-11 13z" />
<glyph unicode="&#x2dc;" horiz-adv-x="755" d="M388 851q-24 13 -36.5 40.5t-22.5 55.5t-22.5 51.5t-36.5 29.5q-12 3 -37.5 -8.5t-57.5 -27.5l-62 -33q-31 -17 -53.5 -24.5t-31 -1.5t6.5 36q7 9 22.5 26.5t36 37.5t44.5 39.5t47.5 34t45.5 20.5t39 -1q28 -20 50.5 -53t40.5 -66l34 -61q16 -28 32 -36q37 -14 74 -12.5 t70.5 15.5t62 38.5t48.5 56.5q28 9 40.5 1.5t11.5 -25t-14 -41.5t-36 -47.5t-54.5 -43.5t-70 -29t-82 -3.5t-89.5 31.5z" />
<glyph unicode="&#x2013;" horiz-adv-x="500" d="M20 412v137h436v-137h-436z" />
<glyph unicode="&#x2014;" horiz-adv-x="1000" d="M20 412v137h936v-137h-936z" />
<glyph unicode="&#x2018;" horiz-adv-x="255" d="M206 550v-58q-13 -9 -32 4t-40 39.5t-42 62t-37 73.5t-25 73.5t-7.5 60.5t16.5 36.5t48 0.5q4 -33 19.5 -76t34.5 -85t37 -77z" />
<glyph unicode="&#x2019;" horiz-adv-x="255" d="M54 606l27 54q18 35 36.5 77.5t34 86t19.5 76.5q32 11 46.5 -0.5t16.5 -37t-7.5 -61t-25 -73.5t-36 -74.5t-41 -63t-39 -39.5t-31.5 -4v59z" />
<glyph unicode="&#x201a;" horiz-adv-x="316" d="M80 -84l27 54q18 35 36.5 77.5t34 86t19.5 76.5q32 11 46.5 -0.5t16.5 -37t-7.5 -61t-25 -73.5t-36 -74.5t-41 -63t-39 -39.5t-31.5 -4v59z" />
<glyph unicode="&#x201c;" horiz-adv-x="333" d="M59 745q-14 28 -18 57.5t-2 60t8 60.5l12 58q22 14 36 3.5t21 -36t9 -61.5t-1 -71t-10 -65t-16 -45q-3 1 -9 6l-12 12l-11 12q-6 6 -7 9zM255 765q-16 16 -21.5 46t-5.5 61.5t3 57t4 31.5q3 1 12.5 2t20 -0.5t18.5 -6.5t8 -15v-196q-3 0 -8.5 2.5l-11.5 5.5l-11 7 q-6 3 -8 5z" />
<glyph unicode="&#x201d;" horiz-adv-x="314" d="M29 774q-1 8 -1.5 27.5t-0.5 41.5t0.5 41t1.5 27q1 13 4 33.5t6 39t6 32t4 13.5h39v-274q-15 -5 -34 -2t-25 21zM225 774q-10 26 -17 66t-11.5 81t-7 76.5t-3.5 51.5q9 19 22.5 20t26 -8t21 -23.5t8.5 -27.5v-255q-11 -6 -23 1t-16 18z" />
<glyph unicode="&#x201e;" horiz-adv-x="314" d="M53 -105q-1 8 -1.5 27.5t-0.5 41.5t0.5 41t1.5 27q1 13 4 33.5t6 39t6 32t4 13.5h39v-274q-15 -5 -34 -2t-25 21zM249 -105q-10 26 -17 66t-11.5 81t-7 76.5t-3.5 51.5q9 19 22.5 20t26 -8t21 -23.5t8.5 -27.5v-255q-11 -6 -23 1t-16 18z" />
<glyph unicode="&#x2026;" horiz-adv-x="750" d="M83 39q-9 29 5.5 51.5t37.5 33t45.5 5.5t29.5 -31q7 -30 -7 -53t-36 -33t-44 -5t-31 32zM333 39q-9 29 5.5 51.5t37.5 33t45.5 5.5t29.5 -31q7 -30 -7 -53t-36 -33t-44 -5t-31 32zM583 39q-9 29 5.5 51.5t37.5 33t45.5 5.5t29.5 -31q7 -30 -7 -53t-36 -33t-44 -5t-31 32z " />
<glyph unicode="&#x2039;" horiz-adv-x="735" d="M628 20q-19 12 -58 40l-88 62l-101 72l-101 74l-86 63l-56 42q-15 11 -35.5 29.5t-39.5 37.5t-31.5 33.5t-11.5 16.5l20 39q1 1 21 25l52 64l73 88l81 99l79 96l66 79q9 11 16 17t15 8.5t19.5 0.5t28.5 -6v-59l-353 -431v-20q0 -1 14 -15l32 -33l38 -38l33 -31l20 -17 l30 -24l29 -24l19 -14l38 -25l59 -39l70 -44l69 -45l59 -38l39 -25v-78q-15 -5 -32.5 4.5t-26.5 15.5z" />
<glyph unicode="&#x203a;" horiz-adv-x="569" d="M88 39q-6 13 -3 27.5t10.5 28t16.5 25t15 17.5l33 37l52 56l61 65l61 65l52 55l35 36v39l-353 353l-39 59q-2 2 6 10t14 10q3 1 9 1.5t12.5 0.5t11.5 -0.5t6 -1.5l451 -432v-59l-35 -33l-52 -52l-62 -60l-60 -62l-52 -52l-33 -35q-6 -7 -21 -26l-30 -41 q-16 -21 -29.5 -41t-17.5 -29q-9 -6 -19 -0.5t-19 14t-15 16.5z" />
<glyph unicode="&#x20ac;" horiz-adv-x="850" d="M47 475q-4 8 8.5 17t35.5 18.5t55.5 18.5t68.5 16q11 46 28 95.5t40 95t52 84t64 63t76.5 31t90.5 -11.5q18 -7 34.5 -28.5t28.5 -48.5t18 -56t2 -51t-19 -32t-45 0q2 67 -8 102.5t-28 47.5t-42 4t-50 -29.5t-52.5 -52.5t-49 -64.5t-40 -66.5t-24.5 -58q-1 -3 -2 -6.5 t-2 -6.5q48 6 93.5 7t79 -5.5t50.5 -21.5t8 -41q-1 -3 -8.5 -10.5t-11.5 -9.5q-12 -1 -38 -3l-58 -5l-68.5 -4t-66.5 -4q-5 -32 -8 -65t-3 -67q37 1 73 2.5t67 3t55.5 2.5t37.5 2q23 1 41 -0.5t28.5 -9t13 -23.5t-4.5 -45q-16 -1 -51 -3l-80 -4l-90 -5l-83 -5 q6 -40 20.5 -74t39 -57t60.5 -32.5t85 -0.5q50 9 86.5 26t69 38.5t65 45.5t73.5 47q14 8 27.5 5t22.5 -13t12 -24t-4 -27q-13 -25 -47.5 -52.5t-80.5 -52t-99 -44t-103.5 -28t-92.5 -5t-67 25.5q-61 52 -91.5 104.5t-41.5 114.5h-3q-8 0 -27 -0.5t-41 -0.5t-41.5 0.5 t-27.5 0.5q-3 2 -10 9.5t-9 10.5q-12 16 -17 29q-5 11 -2.5 20t19.5 9q19 1 60 3t92 4q-1 20 0 42.5t3 45.5q1 10 1.5 20.5t2.5 22.5h-13q-9 0 -28.5 -3.5t-40.5 -4.5t-40 4.5t-28 23.5z" />
<glyph unicode="&#x2122;" horiz-adv-x="1882" d="M980 20q-1 27 -2 84l-4 128l-4 150l-4 150l-4 129q-1 57 -2 84v19q0 7 3.5 12t12.5 11l23 17q13 8 23.5 -2.5t15.5 -17.5q1 -2 7 -11l13 -19l12 -18q6 -9 8 -11q10 -11 32 -33l48 -48l56 -57l57 -57l49 -48q21 -21 32 -31q31 -21 54 -19.5t44 39.5l235 411q2 3 9.5 5 t17 2t18.5 -2t14 -5q3 -3 7 -11t7.5 -17t5 -17.5t0.5 -12.5q1 -21 3.5 -66t6.5 -101l7 -118q4 -62 9 -118l8 -101q3 -44 5 -65q1 -11 6 -39l11 -60l13 -59q6 -28 9 -38q-4 -31 -13 -39t-19.5 -1t-22 24t-21 36t-15.5 35.5t-7 22.5q-2 19 -7 59l-11 90l-12 106l-12 106 l-10 90l-7 59h-19l-196 -314h-79l-294 255h-49v-568q0 -16 -10 -20t-22 -1.5t-23 9t-13 12.5zM334 39q-27 126 -38 254t-1 256l-20 20q-11 0 -39 3l-60 5q-31 3 -58.5 6t-38.5 5q-9 1 -20 6t-18 12.5t-8.5 17.5t7.5 23q85 4 191.5 8.5t219.5 8t224.5 4.5t207.5 -1 q12 -17 17 -30q5 -11 2.5 -20t-19.5 -9q-14 0 -43 -1.5t-66 -3t-77.5 -4t-77.5 -4.5t-66 -4l-43 -3q-6 0 -23 -2.5t-35 -5.5l-36 -6q-17 -3 -23 -5q-1 -15 -1 -45.5t-0.5 -69.5t-0.5 -81.5t0.5 -81.5t0.5 -69.5t1 -45.5q0 -4 3 -21l6 -37l7 -38q3 -17 3 -21q3 -20 -6.5 -36 t-23 -21.5t-27.5 2.5t-21 35z" />
<glyph unicode="&#xe000;" horiz-adv-x="610" d="M0 610h610v-610h-610v610z" />
<glyph unicode="&#xfb01;" horiz-adv-x="695" d="M255 137q-2 7 -4.5 17t-5.5 19.5t-5.5 16t-3.5 6.5l-196 39l-6 9q-7 9 -11 20.5t-2 20.5t19 9h176q1 42 0.5 101t2 123.5t10.5 129t26 117.5q18 55 54.5 85t79 40.5t86 4t76.5 -25t50 -46t7 -58.5q-23 -8 -44.5 -1.5t-42.5 18.5l-41 23q-20 12 -40.5 14.5t-42 -9 t-44.5 -45.5l-11 -19l-12 -25q-7 -13 -11.5 -23t-4.5 -12v-372h235q11 -10 -1 -20t-36 -19t-54 -17l-58 -16q-28 -7 -47 -13.5t-19 -12.5v-196h-59q-1 6 -3.5 23t-5.5 35.5t-6.5 35.5t-4.5 23zM525 -10q-1 3 -2 33l-3 74q-1 44 -3 95q-2 52 -4 98l-3 81q-2 35 -3 45 q-2 20 9.5 35.5t26 22t27.5 3t15 -21.5l18 -445q1 -11 -4.5 -21.5t-14.5 -18.5t-20 -13t-20 -6q-2 2 -5 7l-6 12q-3 6 -5.5 11.5t-2.5 8.5zM516 694q-2 5 -2 19.5t2 19.5q39 10 56 4.5t19.5 -17.5t-6 -26t-21.5 -21.5t-27 -4.5t-21 26z" />
<glyph unicode="&#xfb02;" horiz-adv-x="700" d="M255 137q-2 7 -4.5 17t-5.5 19.5t-5.5 16t-3.5 6.5l-196 39l-6 9q-7 9 -11 20.5t-2 20.5t19 9h176q1 42 0.5 101t2 123.5t10.5 129t26 117.5q18 55 54.5 85t79 40.5t86 4t76.5 -25t50 -46t7 -58.5q-23 -8 -44.5 -1.5t-42.5 18.5l-41 23q-20 12 -40.5 14.5t-42 -9 t-44.5 -45.5l-11 -19l-12 -25q-7 -13 -11.5 -23t-4.5 -12v-372h235q11 -10 -1 -20t-36 -19t-54 -17l-58 -16q-28 -7 -47 -13.5t-19 -12.5v-196h-59q-1 6 -3.5 23t-5.5 35.5t-6.5 35.5t-4.5 23zM548 -32q-2 53 -2.5 122.5t-0.5 147.5t1.5 160.5t4.5 161.5t8 151t12 128 q7 19 19.5 21t24.5 -4t22 -17.5t12 -19.5v-19v-44q0 -26 -1 -58v-60q-1 -29 -2 -52v-30q-1 -23 -2 -70l-4 -108q-2 -59 -4 -125.5t-4 -126.5l-4 -106q-1 -48 -2 -71q-5 -15 -18 -21t-27 -3t-24 14t-9 29z" />
<glyph unicode="&#xfb03;" horiz-adv-x="1425" d="M1317 39q-1 3 -2 33l-3 74q-1 44 -3 96q-2 51 -4 97l-3 81q-2 35 -3 45q-2 20 9.5 35.5t26 22t27.5 3t15 -21.5l18 -445q1 -11 -4.5 -21.5t-14.5 -18.5t-20 -13t-20 -6q-2 2 -5 8l-6 11q-3 6 -5.5 11.5t-2.5 8.5zM1308 743q-2 5 -2 19.5t2 19.5q39 10 56 4.5t19.5 -17.5 t-6 -26t-21.5 -21.5t-27 -4.5t-21 26zM882 137q-2 7 -4.5 17t-5.5 19.5t-5.5 16t-3.5 6.5l-196 39l-7 9q-6 9 -10 20.5t-2 20.5t19 9h176q1 42 0.5 101t2 123.5t10.5 129t26 117.5q18 55 54.5 85t79 40.5t86 4t76.5 -25t50 -46t7 -58.5q-23 -8 -44.5 -1.5t-42.5 18.5l-41 23 q-20 12 -40.5 14.5t-42 -9t-44.5 -45.5l-10 -19l-14 -25l-10.5 -23t-4.5 -12v-372h235q11 -10 -1 -20t-36 -19t-55 -17l-58 -16q-27 -7 -46 -13.5t-19 -12.5v-196h-59q-1 6 -3.5 23t-5.5 35.5t-6.5 35.5t-4.5 23zM255 137q-2 7 -4.5 17t-5.5 19.5t-5.5 16t-3.5 6.5l-196 39 l-6 9q-7 9 -11 20.5t-2 20.5t19 9h176q1 42 0.5 101t2 123.5t10.5 129t26 117.5q18 55 54.5 85t79 40.5t86 4t76.5 -25t50 -46t7 -58.5q-23 -8 -44.5 -1.5t-42.5 18.5l-41 23q-20 12 -40.5 14.5t-42 -9t-44.5 -45.5l-11 -19l-12 -25q-7 -13 -11.5 -23t-4.5 -12v-372h235 q11 -10 -1 -20t-36 -19t-54 -17l-58 -16q-28 -7 -47 -13.5t-19 -12.5v-196h-59q-1 6 -3.5 23t-5.5 35.5t-6.5 35.5t-4.5 23z" />
<glyph unicode="&#xfb04;" horiz-adv-x="1430" d="M1293 39q-2 53 -2.5 122.5t-0.5 147.5t1.5 160.5t4.5 161.5t8 151t12 128q7 19 19.5 21t24.5 -4t22 -17.5t12 -19.5v-18v-44v-59l-2 -61v-50q-1 -23 -1 -31l-3 -71l-3 -106q-2 -60 -4 -126.5t-4 -125.5l-3 -108l-3 -70q-5 -15 -18 -21t-27 -3t-24 14t-9 29zM882 137 q-2 7 -4.5 17t-5.5 19.5t-5.5 16t-3.5 6.5l-196 39l-7 9q-6 9 -10 20.5t-2 20.5t19 9h176q1 42 0.5 101t2 123.5t10.5 129t26 117.5q18 55 54.5 85t79 40.5t86 4t76.5 -25t50 -46t7 -58.5q-23 -8 -44.5 -1.5t-42.5 18.5l-41 23q-20 12 -40.5 14.5t-42 -9t-44.5 -45.5 l-10 -19l-14 -25l-10.5 -23t-4.5 -12v-372h235q11 -10 -1 -20t-36 -19t-55 -17l-58 -16q-27 -7 -46 -13.5t-19 -12.5v-196h-59q-1 6 -3.5 23t-5.5 35.5t-6.5 35.5t-4.5 23zM255 137q-2 7 -4.5 17t-5.5 19.5t-5.5 16t-3.5 6.5l-196 39l-6 9q-7 9 -11 20.5t-2 20.5t19 9h176 q1 42 0.5 101t2 123.5t10.5 129t26 117.5q18 55 54.5 85t79 40.5t86 4t76.5 -25t50 -46t7 -58.5q-23 -8 -44.5 -1.5t-42.5 18.5l-41 23q-20 12 -40.5 14.5t-42 -9t-44.5 -45.5l-11 -19l-12 -25q-7 -13 -11.5 -23t-4.5 -12v-372h235q11 -10 -1 -20t-36 -19t-54 -17l-58 -16 q-28 -7 -47 -13.5t-19 -12.5v-196h-59q-1 6 -3.5 23t-5.5 35.5t-6.5 35.5t-4.5 23z" />
</font>
</defs>
</svg>
