<?xml version="1.0" encoding="iso-8859-1"?>
<!-- Generator: Adobe Illustrator 16.0.0, SVG Export Plug-In . SVG Version: 6.00 Build 0)  -->
<!DOCTYPE svg PUBLIC "-//W3C//DTD SVG 1.1//EN" "http://www.w3.org/Graphics/SVG/1.1/DTD/svg11.dtd">
<svg version="1.1" xmlns="http://www.w3.org/2000/svg" xmlns:xlink="http://www.w3.org/1999/xlink" x="0px" y="0px" width="612px"
	 height="792px" viewBox="0 0 612 792" style="enable-background:new 0 0 612 792;" xml:space="preserve">
<g id="Layer_1" style="display:none;">
	
		<image style="display:inline;overflow:visible;" width="118" height="196" xlink:href="../images/laughboy1.png"  transform="matrix(1 0 0 1 -4 1)">
	</image>
</g>
<g id="Layer_2" style="display:none;">
	
		<image style="display:inline;overflow:visible;" width="118" height="196" xlink:href="../images/laughboy2.png"  transform="matrix(1 0 0 1 -4 1)">
	</image>
</g>
<g id="Layer_3" style="display:none;">
	<path style="display:inline;fill:#ED1968;" d="M58,111c14.782,26.955,44,16.25,44,16.25c6.25-3.25,8.5,3.75,6.5,5.25
		s-6.25,5.75-24,5S49,121,47,113.5S53.75,103.25,58,111z"/>
	<ellipse style="display:inline;fill:#ED1968;" cx="29.125" cy="48.375" rx="5.625" ry="7.625"/>
	<ellipse style="display:inline;fill:#ED1968;" cx="70.5" cy="48.375" rx="5.625" ry="7.625"/>
	<path style="display:inline;fill:#ED1968;" d="M78.75,46.25C78.75,59.367,65.542,70,49.25,70s-29.5-10.633-29.5-23.75
		S32.958,22.5,49.25,22.5S78.75,33.133,78.75,46.25z M31.5,91.5c1.5,0-2.879,41.734-3,43.25c-0.377,4.734,10.75,5.75,11.25,1
		s1.785-13.747,2-16c0.5-5.25,10.5-5.75,11,1.5s0.39,12.754,0.25,15c-0.25,4,11.11,5.243,11.5-1c0.25-4-1.75-42.502,0.331-43.541
		c0.388-0.194,5.354,3.835,8.919,8.291c3,3.75,9.25-0.25,6.75-5c-1.872-3.556-7.668-11.735-18.855-15.938
		C78.317,74.322,93.25,61.833,93.25,41c0-27.476-25.454-39.478-44.698-39.499C29.347,0.249,3.14,10.55,1.333,37.976
		c-1.42,21.558,13.954,36.116,31.137,41.238c-10.682,5.357-15.665,14.142-17.152,17.875c-1.986,4.987,4.65,8.307,7.238,4.262
		C25.633,96.544,30.822,91.227,31.5,91.5z"/>
</g>
<g id="Layer_3_copy">
	<path style="fill:#ED1968;" d="M58,111c14.782,26.955,44,16.25,44,16.25c6.25-3.25,8.5,3.75,6.5,5.25s-6.25,5.75-24,5
		S49,121,47,113.5S53.75,103.25,58,111z"/>
	<path style="fill:#ED1968;" d="M78.75,46.25C78.75,59.367,65.542,70,49.25,70s-29.5-10.633-29.5-23.75S32.958,22.5,49.25,22.5
		S78.75,33.133,78.75,46.25z M32.47,79.214C23,79.25,11.75,69.5,9.25,67C6.945,64.695-1.25,68.5,4,75
		c8.115,10.047,27.5,16.5,27.5,16.5c1.5,0-2.879,41.734-3,43.25c-0.377,4.734,10.75,5.75,11.25,1s1.785-13.747,2-16
		c0.5-5.25,10.5-5.75,11,1.5s0.39,12.754,0.25,15c-0.25,4,11.11,5.243,11.5-1c0.25-4-1.75-42.502,0.331-43.541
		c0,0,15.27-6.967,26.919-16.459c6.75-5.5-0.25-10.5-3.75-7.75C84.746,70.057,67.5,81,61.645,79.062
		C78.317,74.322,93.25,61.833,93.25,41c0-27.476-25.454-39.478-44.698-39.499C29.347,0.249,3.14,10.55,1.333,37.976
		C-0.087,59.534,15.288,74.092,32.47,79.214z"/>
	<path style="fill:none;stroke:#ED1968;stroke-width:2;stroke-linecap:round;stroke-miterlimit:10;" d="M33.5,48.333
		c-2-0.167-8,2.667-9.167,4.167"/>
	<path style="fill:none;stroke:#ED1968;stroke-width:2;stroke-linecap:round;stroke-miterlimit:10;" d="M74.962,51.683
		c-1.297-1.531-7.543-3.771-9.429-3.535"/>
</g>
</svg>
